<svg xmlns="http://www.w3.org/2000/svg" width="699.066" height="464.197" viewBox="0 0 699.066 464.197">
  <g id="undraw_page_not_found_re_e9o6" transform="translate(-0.005)">
    <path id="Path_165" data-name="Path 165" d="M567.721,319.026c-6.233-10.309-13.619-21.316-25.187-24.683-13.4-3.9-27.156,3.846-38.829,11.488A1131.442,1131.442,0,0,0,403.013,380.02l.035.4,75.139-5.182c18.1-1.248,36.814-2.668,52.805-11.229,6.068-3.248,11.984-7.588,18.86-7.89,8.543-.376,15.993,5.591,21.847,11.825,34.629,36.875,44.65,93.265,83.5,125.663A1232.916,1232.916,0,0,0,567.721,319.026Z" transform="translate(-213.579 -188.559)" fill="#f2f2f2"/>
    <path id="Path_166" data-name="Path 166" d="M761.42,626.248c-3.829-4.836-5.394-5.968-9.172-10.848q-46.135-59.669-86.726-123.368-27.571-43.262-52.408-88.186-11.824-21.357-23-43.05-8.672-16.82-16.958-33.841c-1.58-3.241-3.115-6.5-4.642-9.76-3.6-7.674-7.13-15.386-10.923-22.956-4.321-8.628-9.581-17.673-17.517-23.47a23.9,23.9,0,0,0-12.45-4.791c-6.46-.417-12.42,2.25-18.023,5.163a580.189,580.189,0,0,0-114.085,78.672A593.938,593.938,0,0,0,302.831,452.7c-.819,1.17-2.757.052-1.93-1.125q4.884-6.907,9.962-13.665A597.218,597.218,0,0,1,463.334,295.692q14.831-9.611,30.22-18.321c5.171-2.928,10.364-5.819,15.646-8.531,5.178-2.66,10.677-5.052,16.593-5.141,20.132-.313,30.555,22.486,37.715,37.827q3.375,7.242,6.832,14.439,13.065,27.325,27.135,54.151,8.684,16.563,17.748,32.932,28.208,50.974,59.963,99.884c28.044,43.191,55.865,81.347,87.814,121.737C763.879,625.787,762.307,627.381,761.42,626.248Z" transform="translate(-194.42 -183.015)" fill="#e4e4e4"/>
    <path id="Path_167" data-name="Path 167" d="M373.256,347.3c-1.17-1.3-2.332-2.608-3.509-3.912-9.283-10.267-19.245-20.415-31.993-26.3a46.416,46.416,0,0,0-19.446-4.508,55.5,55.5,0,0,0-20.191,4.4c-3.04,1.214-6.013,2.593-8.941,4.061-3.346,1.684-6.631,3.479-9.9,5.29q-9.209,5.1-18.18,10.64-17.848,11.031-34.579,23.745-8.673,6.594-16.988,13.62-7.734,6.527-15.155,13.4c-1.058.976-2.638-.6-1.58-1.58,1.3-1.214,2.623-2.421,3.941-3.614q5.588-5.052,11.355-9.909,10.516-8.874,21.577-17.062,17.2-12.741,35.584-23.753,9.187-5.5,18.627-10.535c1.9-1.013,3.822-2,5.767-2.943a91.933,91.933,0,0,1,13.709-5.581,48.77,48.77,0,0,1,20.705-2.034,53.907,53.907,0,0,1,19.1,6.609c12.517,7,22.225,17.814,31.673,28.372C375.79,346.787,374.218,348.375,373.256,347.3Z" transform="translate(-174.148 -191.761)" fill="#e4e4e4"/>
    <path id="Path_168" data-name="Path 168" d="M730.165,481.032l29.994-10.97,14.892-5.447a152.28,152.28,0,0,1,14.7-5.064,23.2,23.2,0,0,1,13.308.17,30.671,30.671,0,0,1,10.379,6.434,84.234,84.234,0,0,1,8.513,9.092c3.242,3.9,6.437,7.834,9.645,11.758q19.865,24.294,39.469,48.8t38.946,49.216q19.389,24.773,38.512,49.753,2.343,3.06,4.681,6.123c.861,1.128,2.8.016,1.93-1.128q-19.264-25.231-38.8-50.256-19.58-25.084-39.431-49.956t-39.969-49.526q-5.012-6.142-10.041-12.271c-2.828-3.447-5.624-6.93-8.726-10.138-5.694-5.888-12.807-11.092-21.322-11.233-5.006-.083-9.851,1.506-14.5,3.188-5.014,1.814-10.017,3.662-15.025,5.494l-30.2,11.047-7.551,2.762c-1.34.49-.761,2.651.594,2.155Z" transform="translate(-274.587 -219.097)" fill="#e4e4e4"/>
    <path id="Path_169" data-name="Path 169" d="M355.141,333.374c-15.242-7.834-34.762-6.3-48.769,3.488a695.579,695.579,0,0,1,79.137,18.47C374.714,349.006,366.27,339.095,355.141,333.374Z" transform="translate(-195.482 -195.127)" fill="#f2f2f2"/>
    <path id="Path_170" data-name="Path 170" d="M305.512,338.784l-2.934,2.385c.993-.835,2.024-1.617,3.084-2.358Z" transform="translate(-194.772 -197.076)" fill="#f2f2f2"/>
    <path id="Path_171" data-name="Path 171" d="M828.166,484.815c-2.953-3.594-6.145-7.357-10.561-8.817l-4.123.163A467.68,467.68,0,0,0,938.049,618.569Z" transform="translate(-290.442 -222.77)" fill="#f2f2f2"/>
    <path id="Path_172" data-name="Path 172" d="M515.447,450.367A30.463,30.463,0,0,0,527.582,467.4c2.292,1.561,5,3.058,5.788,5.717a6.81,6.81,0,0,1-.71,5,20.224,20.224,0,0,1-3.138,4.1l-.111.416c-5.688-3.371-11.1-7.634-14.241-13.452s-3.581-13.442.277-18.811" transform="translate(-234.116 -217.97)" fill="#f2f2f2"/>
    <path id="Path_173" data-name="Path 173" d="M748.447,653.367A30.462,30.462,0,0,0,760.582,670.4c2.292,1.56,5,3.058,5.788,5.717a6.81,6.81,0,0,1-.71,5,20.224,20.224,0,0,1-3.138,4.1l-.111.416c-5.688-3.371-11.1-7.634-14.241-13.452s-3.581-13.442.277-18.811" transform="translate(-277.747 -255.984)" fill="#f2f2f2"/>
    <path id="Path_174" data-name="Path 174" d="M283.447,639.367A30.462,30.462,0,0,0,295.582,656.4c2.292,1.561,5,3.058,5.788,5.717a6.81,6.81,0,0,1-.71,5,20.224,20.224,0,0,1-3.138,4.1l-.111.416c-5.688-3.371-11.1-7.634-14.241-13.452s-3.581-13.442.277-18.811" transform="translate(-190.672 -253.362)" fill="#f2f2f2"/>
    <circle id="Ellipse_89" data-name="Ellipse 89" cx="41.45" cy="41.45" r="41.45" transform="translate(486.224)" fill="#f37020"/>
    <path id="Path_175" data-name="Path 175" d="M892.412,176.2c-20.089-2.715-43.023,8.143-48.229,27.734a17.552,17.552,0,0,0-33.4,1.714l2.3,1.647a302.565,302.565,0,0,0,130.574-.59C929.684,192.02,912.5,178.916,892.412,176.2Z" transform="translate(-289.937 -166.554)" fill="#f0f0f0"/>
    <path id="Path_176" data-name="Path 176" d="M786.412,244.2c-20.088-2.715-43.023,8.143-48.229,27.734a17.552,17.552,0,0,0-33.4,1.714l2.3,1.647a302.563,302.563,0,0,0,130.574-.59C823.684,260.02,806.5,246.916,786.412,244.2Z" transform="translate(-270.088 -179.287)" fill="#f0f0f0"/>
    <path id="Path_177" data-name="Path 177" d="M863.112,244.408a.8.8,0,0,1-.245-.038c-214.9-67.96-404.3-59.073-525.344-39.651-16.473,2.642-32.99,5.694-49.093,9.071-4.111.861-8.376,1.784-12.676,2.745-5.136,1.144-10.2,2.322-15.062,3.5q-3.148.745-6.173,1.5c-3.055.754-6.154,1.54-9.476,2.4-3.712.957-7.485,1.961-11.214,2.984l-.042.012h0c-4.212,1.15-8.4,2.333-12.454,3.515-2.193.633-4.311,1.258-6.339,1.875-.227.063-.427.123-.631.185l-.436.133c-.252.077-.5.152-.751.224l-.016,0h0l-.66.2c-.787.238-1.554.471-2.309.7-19.949,6.15-30.915,10.524-31.024,10.567a.813.813,0,1,1-.6-1.509c.109-.043,11.129-4.44,31.15-10.612.758-.233,1.527-.465,2.316-.7l.613-.19c.021-.008.042-.014.063-.021.248-.071.5-.146.747-.222l.437-.133c.217-.066.432-.131.651-.191,2.014-.613,4.139-1.239,6.338-1.875,4.053-1.183,8.247-2.366,12.463-3.518l.04-.012h0c3.742-1.026,7.528-2.034,11.253-2.995,3.328-.864,6.433-1.652,9.493-2.407q3.038-.756,6.184-1.506c4.865-1.179,9.942-2.359,15.087-3.5,4.307-.962,8.579-1.887,12.7-2.749,16.128-3.383,32.67-6.439,49.169-9.085,121.22-19.45,310.89-28.351,526.091,39.706a.813.813,0,0,1-.244,1.587Z" transform="translate(-171.454 -169.044)" fill="#ccc"/>
    <path id="Path_178" data-name="Path 178" d="M397.261,564.5a5.469,5.469,0,0,0-1.382-2.17,5.225,5.225,0,0,0-.748-.577c-2.121-1.414-5.291-1.731-7.307,0a4.717,4.717,0,0,0-.561.577q-.9,1.109-1.853,2.17c-1.04,1.187-2.105,2.333-3.218,3.446-.317.309-.634.626-.959.935-.187.187-.374.366-.561.545-.715.683-1.447,1.341-2.186,1.991-.39.349-.78.691-1.178,1.024-.593.5-1.187.992-1.788,1.471-.057.041-.114.081-.171.13-.016.008-.024.024-.041.032s-.016,0-.024.016a.145.145,0,0,0-.057.041c-.179.122-.3.2-.39.276.033-.016.065-.041.1-.057-.146.114-.3.228-.447.341-1.422,1.048-2.877,2.056-4.364,3a80.617,80.617,0,0,1-11.557,6.136c-.268.106-.545.219-.821.325a69.871,69.871,0,0,1-33.2,4.893q-1.731-.134-3.462-.366c-1.333-.2-2.658-.431-3.974-.7a79.6,79.6,0,0,1-14.646-4.421,96.429,96.429,0,0,1-16.791-9.85c-.813-.577-1.634-1.154-2.455-1.715q1.4-3.438,2.747-6.892c.447-1.113.878-2.227,1.3-3.349,3.324-8.639,6.445-17.36,9.436-26.113q4.535-13.3,8.558-26.755.414-1.365.8-2.731,2.109-7.107,4.047-14.247c.122-.463.252-.918.366-1.382q.561-2.048,1.1-4.1c.813-3.08-1.024-6.762-4.259-7.5a6.2,6.2,0,0,0-7.493,4.259c-.349,1.317-.7,2.625-1.057,3.942q-2.572,9.546-5.413,19.026l-.829,2.731q-6.266,20.652-13.76,40.889-.9,2.45-1.829,4.885c-.3.8-.6,1.593-.91,2.389-.593,1.569-1.2,3.137-1.812,4.706-.35.918-.707,1.837-1.065,2.747-.236.577-.463,1.154-.691,1.723a33.982,33.982,0,0,0-7.16-1.723l-.39-.049a22.265,22.265,0,0,0-5.7.049,19.436,19.436,0,0,0-14.012,8.664c-3.877,6.1-3.828,14.833,1.609,20.018,5.6,5.34,14.077,5.3,20.668,1.959a23.042,23.042,0,0,0,8.55-8.014,41.1,41.1,0,0,0,2.227-3.779c.171.114.341.228.512.349.65.455,1.3.918,1.942,1.374a90.82,90.82,0,0,0,11.793,7.242,88.069,88.069,0,0,0,28.137,8.509c.219.024.431.057.65.081,1.081.138,2.17.244,3.259.333a84.348,84.348,0,0,0,45.172-9.233q1.768-.914,3.5-1.918,2.694-1.56,5.267-3.316c.935-.634,1.845-1.276,2.747-1.951a82.115,82.115,0,0,0,10.98-9.712q1.914-2.012,3.665-4.153a6.552,6.552,0,0,0,1.788-4.308A6.148,6.148,0,0,0,397.261,564.5Zm-134.582,19.36c.171-.122.341-.252.5-.382C263.134,583.6,262.9,583.742,262.679,583.864Zm2.609-2.625c-.187.211-.358.423-.545.634a19,19,0,0,1-1.829,1.788c-.089.081-.187.163-.284.236l-.006,0a.008.008,0,0,0,0,.006,3.107,3.107,0,0,0-.341.179q-.524.317-1.073.585a13.812,13.812,0,0,1-2.2.61,13.642,13.642,0,0,1-1.731.016h-.016a12.039,12.039,0,0,1-1.179-.325c-.2-.1-.382-.211-.569-.325-.073-.065-.138-.13-.179-.171a1.99,1.99,0,0,1-.219-.236.008.008,0,0,0,0-.006l-.006,0c-.089-.162-.187-.325-.276-.488a.025.025,0,0,1-.008-.016c-.065-.2-.122-.414-.171-.626a10.169,10.169,0,0,1,.008-1.113,10.939,10.939,0,0,1,.439-1.528,9,9,0,0,1,.561-1.024c.016-.033.1-.163.187-.309.008-.008.008-.008.008-.016.122-.138.244-.284.374-.414.219-.244.455-.455.691-.675a14.654,14.654,0,0,1,1.422-.821,15.826,15.826,0,0,1,2.381-.642,20.311,20.311,0,0,1,3.584.033,24.637,24.637,0,0,1,3.332.821,30.033,30.033,0,0,1-2.251,3.69C265.353,581.15,265.321,581.2,265.288,581.239Zm-9.038-2.674a1.775,1.775,0,0,1-.252.317,1.145,1.145,0,0,1,.252-.317Z" transform="translate(-183.518 -223.283)" fill="#3f3d56"/>
    <path id="Path_179" data-name="Path 179" d="M398.762,480.732q-.11,3.828-.219,7.656-.232,8.5-.479,17-.256,9.57-.536,19.132-.134,4.937-.276,9.875-.378,13.3-.748,26.593c-.024.918-.057,1.829-.081,2.747l-.366,13.191q-.207,7.156-.406,14.312-.146,5.364-.3,10.736-1.1,38.926-2.194,77.853a6.216,6.216,0,0,1-6.1,6.1,6.145,6.145,0,0,1-6.1-6.1q.61-21.9,1.235-43.791.549-19.8,1.113-39.6.183-6.522.366-13.053.28-9.826.553-19.652c.024-.918.057-1.829.081-2.747.016-.8.041-1.6.065-2.406q.536-19.079,1.073-38.166.219-7.51.423-15.028.244-8.57.488-17.133c.073-2.511.138-5.015.211-7.526a6.216,6.216,0,0,1,6.1-6.1A6.145,6.145,0,0,1,398.762,480.732Z" transform="translate(-209.45 -222.515)" fill="#3f3d56"/>
    <path id="Path_180" data-name="Path 180" d="M801.08,483.191a725.956,725.956,0,0,1-22.888,71.474c-2.444,6.458-4.944,12.9-7.617,19.272l.614-1.456a44.364,44.364,0,0,1-4.543,8.625q-.186.261-.379.517.947-1.211.36-.479c-.206.244-.41.489-.624.728a19.219,19.219,0,0,1-1.828,1.791q-.245.209-.5.41l.762-.592c-.088.209-.709.486-.9.6a14.85,14.85,0,0,1-1.954.99l1.456-.614a15.51,15.51,0,0,1-3.439.943l1.62-.218a13.83,13.83,0,0,1-3.493.037l1.62.218a11.38,11.38,0,0,1-2.767-.745l1.456.614a9.769,9.769,0,0,1-1.364-.728c-.221-.144-.9-.657-.012.02.921.7.118.06-.071-.127-.158-.156-.3-.325-.455-.484-.717-.735.81,1.265.323.405a14.768,14.768,0,0,1-.714-1.33l.614,1.456a9.694,9.694,0,0,1-.592-2.155l.218,1.62a11.093,11.093,0,0,1,0-2.767l-.218,1.62a12.98,12.98,0,0,1,.809-2.991l-.615,1.456a13.6,13.6,0,0,1,.957-1.868,5.468,5.468,0,0,1,.592-.871c.04.013-1.031,1.229-.463.615.149-.161.288-.33.438-.489.241-.255.5-.488.752-.73.849-.808-1.188.785-.208.146a15.485,15.485,0,0,1,2.234-1.218l-1.456.614a16.508,16.508,0,0,1,4.06-1.089l-1.62.218a20.828,20.828,0,0,1,5.251.062l-1.62-.218a26.994,26.994,0,0,1,6.414,1.8l-1.456-.614c4.38,1.881,8.26,4.673,12.133,7.411a90.98,90.98,0,0,0,11.79,7.239,88.09,88.09,0,0,0,28.139,8.512,84.471,84.471,0,0,0,75.248-29.87,6.565,6.565,0,0,0,1.785-4.31,6.2,6.2,0,0,0-1.785-4.31c-2.236-2.053-6.461-2.633-8.62,0a77.719,77.719,0,0,1-6.589,7.093q-1.64,1.556-3.367,3.015-.986.834-2,1.635c-.32.253-1.316.925.214-.16-.351.249-.687.52-1.033.776a80.679,80.679,0,0,1-16.525,9.4l1.456-.615a78.7,78.7,0,0,1-19.645,5.382l1.62-.218a79.363,79.363,0,0,1-20.931-.031l1.62.218a81.113,81.113,0,0,1-20.2-5.5l1.456.615a94.3,94.3,0,0,1-17.666-10.233,70.605,70.605,0,0,0-9.032-5.684,34.8,34.8,0,0,0-11.734-3.567c-7.671-.9-15.489,2.085-19.706,8.713-3.881,6.1-3.831,14.827,1.6,20.014,5.6,5.342,14.075,5.3,20.673,1.955,6.354-3.218,10.17-9.9,12.854-16.208,6.04-14.186,11.387-28.7,16.369-43.289q7.393-21.649,13.409-43.736.745-2.736,1.469-5.477c.814-3.079-1.025-6.762-4.257-7.5a6.2,6.2,0,0,0-7.5,4.257Z" transform="translate(-277.383 -223.283)" fill="#3f3d56"/>
    <path id="Path_181" data-name="Path 181" d="M887.831,480.732l-2.194,77.855-2.183,77.45-1.234,43.794a6.148,6.148,0,0,0,6.1,6.1,6.217,6.217,0,0,0,6.1-6.1l2.194-77.855,2.183-77.45,1.234-43.794a6.148,6.148,0,0,0-6.1-6.1A6.217,6.217,0,0,0,887.831,480.732Z" transform="translate(-303.314 -222.515)" fill="#3f3d56"/>
    <path id="Path_182" data-name="Path 182" d="M607.554,664.166h1.893V577.981H653.6v-1.888H609.446V539.728h34.1q-.75-.954-1.543-1.883H609.446V513.826c-.626-.267-1.257-.524-1.893-.767v24.786h-37.1V507.07c-.636.029-1.262.073-1.893.126v30.649h-29.6V514.884c-.636.281-1.262.578-1.883.888v22.073H512.191v1.883h24.883v36.366H512.191v1.888h24.883v86.185h1.883V577.981a29.6,29.6,0,0,1,29.6,29.606v56.579h1.893V577.981h37.1Zm-68.6-88.073V539.728h29.6v36.366Zm31.493,0V539.728h.743a36.363,36.363,0,0,1,36.361,36.363Z" transform="translate(-234.023 -228.589)" opacity="0.2"/>
    <path id="Path_183" data-name="Path 183" d="M607.968,658.928a51.25,51.25,0,0,1-16.3,27.389c-.6.52-1.2,1.024-1.829,1.52q-2.28.207-4.527.423c-1.244.114-2.471.236-3.69.349l-.219.024-.154-1.333-.618-5.4a30.578,30.578,0,0,1-2.682-26.365c2.146-5.787,6.031-10.9,9.85-15.97,5.275-7.006,10.4-13.93,10.59-22.472a49.208,49.208,0,0,1,6.421,10.834,13.355,13.355,0,0,0-4.161,3.064c-.333.366-.666.878-.439,1.317.2.374.683.463,1.105.512l3.056.317c.813.089,1.625.171,2.438.26a52.005,52.005,0,0,1,1.991,9.9A49.729,49.729,0,0,1,607.968,658.928Z" transform="translate(-245.997 -249.192)" fill="#3f3d56"/>
    <path id="Path_184" data-name="Path 184" d="M636.216,642.34c-4.8,3.487-7.6,8.5-9.777,14.028a13.515,13.515,0,0,0-5.827,3.722c-.333.366-.666.878-.439,1.317.2.374.683.463,1.105.512l3.056.317c-2.178,6.534-4.177,13.3-8.03,18.815a30.062,30.062,0,0,1-9.777,8.867,31.28,31.28,0,0,1-3.267,1.617q-6.193.475-12.151,1.016-2.28.207-4.527.423c-1.244.114-2.471.236-3.69.349q-.012-.67,0-1.341a51.45,51.45,0,0,1,12.394-32.4c.366-.423.74-.837,1.122-1.252a50.222,50.222,0,0,1,13.662-10.322,50.923,50.923,0,0,1,26.146-5.673Z" transform="translate(-247.261 -253.906)" fill="#f37020"/>
    <path id="Path_185" data-name="Path 185" d="M584.11,684.07l-.935,2.763-.471,1.406c-1.244.114-2.471.236-3.69.349l-.219.024-4.031.414c-.349-.406-.7-.821-1.04-1.243a50.415,50.415,0,0,1,6.559-70.8c-1.073,5.616.179,11,2.235,16.336-.219.089-.431.179-.634.276a13.354,13.354,0,0,0-4.161,3.064c-.333.366-.666.878-.439,1.317.2.374.683.463,1.105.512l3.056.317c.813.089,1.625.171,2.438.26l1.146.122c.057.122.106.236.163.358,2.316,5.023,4.811,10.07,6.218,15.3a35.488,35.488,0,0,1,.829,3.991A30.562,30.562,0,0,1,584.11,684.07Z" transform="translate(-243.384 -249.171)" fill="#f37020"/>
    <path id="Path_186" data-name="Path 186" d="M651.117,543.237a90.04,90.04,0,0,0-30.585-33.569,92.845,92.845,0,0,0-42.72-14.938q-3-.273-6.013-.319c-2.374-.036-38.09,10.266-50.054,18.679a92.893,92.893,0,0,0-28.717,32.125,83.306,83.306,0,0,0-9.855,41.965,92.3,92.3,0,0,0,11.949,41.837,89.789,89.789,0,0,0,29.62,31.491c12.466,7.953,24.988,29.043,39.706,29.788,14.829.75,31.741-19.144,45.266-25.184a84.872,84.872,0,0,0,33.912-27.637,89.605,89.605,0,0,0,15.929-39.782c2.092-14.7,1.117-29.854-3.9-43.9a90.9,90.9,0,0,0-4.535-10.552,6.137,6.137,0,0,0-8.34-2.187,6.242,6.242,0,0,0-2.187,8.34q1.274,2.51,2.369,5.1l-.614-1.456a82.209,82.209,0,0,1,5.589,20.756l-.218-1.62a88.781,88.781,0,0,1-.054,23.311l.218-1.62a89.189,89.189,0,0,1-6.14,22.492l.615-1.456a84.691,84.691,0,0,1-5.422,10.646q-1.563,2.589-3.316,5.057c-.513.722-1.043,1.431-1.576,2.138-.7.923.948-1.205.229-.3-.122.154-.244.309-.367.463q-.554.692-1.123,1.372a76.083,76.083,0,0,1-8.271,8.439q-1.11.969-2.258,1.895c-.381.307-.757.628-1.155.914.015-.011,1.284-.975.533-.415-.236.176-.47.355-.707.53q-2.365,1.752-4.856,3.326a84.1,84.1,0,0,1-11.992,6.269l1.456-.614a88.765,88.765,0,0,1-22.429,6.137l1.62-.218a87.9,87.9,0,0,1-23.236.041l1.62.218a81.142,81.142,0,0,1-20.4-5.514l1.456.615a76.109,76.109,0,0,1-10.9-5.682q-2.58-1.625-5.026-3.452c-.233-.174-.463-.35-.695-.525-.744-.562.535.414.545.421a15.6,15.6,0,0,1-1.248-1q-1.181-.962-2.326-1.968a82.891,82.891,0,0,1-8.528-8.7q-.986-1.165-1.93-2.365c-.272-.346-.769-1.049.329.43-.144-.195-.294-.385-.44-.579q-.525-.7-1.037-1.4-1.79-2.477-3.4-5.076a88.825,88.825,0,0,1-6.344-12.279l.615,1.456a86.628,86.628,0,0,1-5.966-21.812l.218,1.62a79.541,79.541,0,0,1-.039-20.835l-.218,1.62a76.947,76.947,0,0,1,5.36-19.473l-.615,1.456a82.545,82.545,0,0,1,5.848-11.261q1.679-2.7,3.558-5.27.427-.584.863-1.161c.263-.348.988-1.214-.248.316.121-.15.238-.3.357-.456q1.031-1.306,2.113-2.572a87.28,87.28,0,0,1,8.845-8.957q1.2-1.05,2.434-2.055.562-.457,1.131-.9c.152-.119.305-.236.456-.356-1.623,1.292-.451.352-.083.076q2.547-1.909,5.23-3.626a84.236,84.236,0,0,1,12.505-6.59l-1.456.615c6.307-2.648,34.25-8.9,39.332-8.217l-1.62-.218a86.337,86.337,0,0,1,21.716,6l-1.456-.614a89.632,89.632,0,0,1,10.241,5.144q2.474,1.45,4.85,3.058,1.124.761,2.225,1.556.55.4,1.094.8c.2.15.4.3.6.453.845.633-1.163-.917-.278-.217a90.082,90.082,0,0,1,8.426,7.521q1.951,1.987,3.769,4.1.932,1.084,1.826,2.2c.3.37,1.3,1.708.069.069.3.4.607.8.906,1.2a79.626,79.626,0,0,1,6.82,11,6.139,6.139,0,0,0,8.34,2.187A6.239,6.239,0,0,0,651.117,543.237Z" transform="translate(-228.582 -226.218)" fill="#3f3d56"/>
    <path id="Path_187" data-name="Path 187" d="M585.506,651.412a3.072,3.072,0,0,1-2.226-5.325l.211-.837-.084-.2c-2.828-6.744-20.875,12.056-21.656,18.394a24.4,24.4,0,0,0,.428,8.394,97.849,97.849,0,0,1-8.9-40.64,94.458,94.458,0,0,1,.586-10.536q.485-4.3,1.347-8.542a98.982,98.982,0,0,1,19.629-41.951c5.587.312,10.483-.539,10.956-11.366.084-1.926,1.513-3.594,1.827-5.491-.533.07-1.075.114-1.609.149l-.507.026-.063,0a3.044,3.044,0,0,1-2.5-4.959l.691-.85c.35-.437.708-.866,1.058-1.3a1.518,1.518,0,0,0,.114-.131c.4-.5.8-.988,1.207-1.486a8.8,8.8,0,0,0-2.885-2.789c-4.031-2.361-9.592-.726-12.5,2.92s-3.471,8.761-2.457,13.316a35.271,35.271,0,0,0,4.879,10.877c-.219.28-.446.551-.664.831a99.621,99.621,0,0,0-10.4,16.473c.826-6.452-9.275-29.753-13.181-34.688-4.692-5.928-14.313-3.341-15.14,4.174q-.012.109-.023.218.87.491,1.7,1.042a4.167,4.167,0,0,1-1.68,7.583l-.085.013c-7.766,11.089,17.13,39.95,23.362,33.47a101.679,101.679,0,0,0-5.474,25.758,96.444,96.444,0,0,0,.07,15.572l-.026-.184c-1.384-11.283-25.139-28.058-32.076-26.661-4,.8-7.932.622-7.325,4.653q.015.1.03.193a27.976,27.976,0,0,1,3.139,1.513q.87.491,1.7,1.042a4.167,4.167,0,0,1-1.68,7.583l-.085.013-.175.026c-3.535,12.164,22.682,31.794,38.62,25.548h.009a101.657,101.657,0,0,0,6.829,19.935H584.9c.087-.271.166-.551.245-.822a27.718,27.718,0,0,1-6.75-.4c1.81-2.221,3.62-4.459,5.43-6.68a1.517,1.517,0,0,0,.114-.131c.918-1.137,1.845-2.265,2.763-3.4h0a40.6,40.6,0,0,0-1.19-10.342ZM557.572,596.46l.013-.017-.013.035Zm-5.4,48.71-.21-.472c.009-.341.009-.682,0-1.032,0-.1-.017-.192-.017-.289.079.6.149,1.207.236,1.81Z" transform="translate(-233.997 -234.917)" fill="#3f3d56"/>
    <circle id="Ellipse_90" data-name="Ellipse 90" cx="8.94" cy="8.94" r="8.94" transform="translate(68.474 347.854)" fill="#3f3d56"/>
    <circle id="Ellipse_91" data-name="Ellipse 91" cx="8.94" cy="8.94" r="8.94" transform="translate(175.756 445.383)" fill="#3f3d56"/>
    <circle id="Ellipse_92" data-name="Ellipse 92" cx="8.94" cy="8.94" r="8.94" transform="translate(582.94 445.383)" fill="#3f3d56"/>
    <circle id="Ellipse_93" data-name="Ellipse 93" cx="8.94" cy="8.94" r="8.94" transform="translate(604.884 331.599)" fill="#3f3d56"/>
    <circle id="Ellipse_94" data-name="Ellipse 94" cx="8.94" cy="8.94" r="8.94" transform="translate(578.876 248.699)" fill="#3f3d56"/>
    <path id="Path_188" data-name="Path 188" d="M430.082,581.371a8.9,8.9,0,1,1-.171-1.756,8.9,8.9,0,0,1,.171,1.756Z" transform="translate(-215.315 -240.831)" fill="#3f3d56"/>
    <circle id="Ellipse_95" data-name="Ellipse 95" cx="8.94" cy="8.94" r="8.94" transform="translate(384.631 274.707)" fill="#3f3d56"/>
    <path id="Path_189" data-name="Path 189" d="M541.082,511.371a8.9,8.9,0,1,1-.171-1.756A8.9,8.9,0,0,1,541.082,511.371Z" transform="translate(-236.101 -227.723)" fill="#3f3d56"/>
    <path id="Path_190" data-name="Path 190" d="M399.082,479.371a8.9,8.9,0,1,1-.171-1.756A8.9,8.9,0,0,1,399.082,479.371Z" transform="translate(-209.51 -221.731)" fill="#3f3d56"/>
    <circle id="Ellipse_96" data-name="Ellipse 96" cx="8.94" cy="8.94" r="8.94" transform="translate(478.096 351.105)" fill="#3f3d56"/>
    <circle id="Ellipse_97" data-name="Ellipse 97" cx="13.004" cy="13.004" r="13.004" transform="translate(333.428 261.703)" fill="#3f3d56"/>
    <path id="Path_191" data-name="Path 191" d="M868.037,734.821l-697.13.25a.968.968,0,1,1,0-1.935l697.13-.25a.968.968,0,1,1,0,1.935Z" transform="translate(-169.934 -270.874)" fill="#cacaca"/>
  </g>
</svg>
