<svg xmlns="http://www.w3.org/2000/svg" xmlns:xlink="http://www.w3.org/1999/xlink" width="345.084" height="45" viewBox="0 0 345.084 45">
  <defs>
    <radialGradient id="radial-gradient" cx="0.5" cy="0.5" r="0.5" gradientUnits="objectBoundingBox">
      <stop offset="0" stop-color="#ffd472"/>
      <stop offset="0.523" stop-color="#ffb817"/>
      <stop offset="1" stop-color="#ff780d"/>
    </radialGradient>
    <linearGradient id="linear-gradient" x1="0.5" x2="0.5" y2="1" gradientUnits="objectBoundingBox">
      <stop offset="0" stop-color="#015fb9"/>
      <stop offset="1" stop-color="#01305d"/>
    </linearGradient>
  </defs>
  <g id="logo-text" transform="translate(-865 -673)">
    <g id="Group_799" data-name="Group 799" transform="translate(383.084 222.296)">
      <g id="Group_533" data-name="Group 533" transform="translate(402.828 361.672)">
        <g id="Group_401" data-name="Group 401" transform="translate(127.488 114.685)">
          <g id="Group_400" data-name="Group 400" transform="translate(0)">
            <g id="Group_399" data-name="Group 399">
              <path id="Path_103" data-name="Path 103" d="M10.167,1.94a3.719,3.719,0,0,1-.928,2.7A3.474,3.474,0,0,1,6.6,5.6a4.753,4.753,0,0,1-2.333-.581A6.452,6.452,0,0,1,2.194,2.9,19.621,19.621,0,0,1,.266-1.369L2.527-2.413A15.092,15.092,0,0,0,4.264,1.534,2.649,2.649,0,0,0,6.406,2.869c.762,0,1.142-.45,1.142-1.364a3.284,3.284,0,0,0-.643-2,6.568,6.568,0,0,1-1.476.2L5.312-2.849a2.678,2.678,0,0,0,1.571-.464,1.348,1.348,0,0,0,.428-1.074.988.988,0,0,0-.4-.929,1.685,1.685,0,0,0-.881-.232,3.163,3.163,0,0,0-1.19.232,7.22,7.22,0,0,0-1.095.522L3-7.2A8.167,8.167,0,0,1,4.479-7.87a5.445,5.445,0,0,1,1.976-.348A3.151,3.151,0,0,1,9.025-7.145a3.948,3.948,0,0,1,.9,2.67A3.9,3.9,0,0,1,8.882-1.63c.048.08.1.16.143.232.173.022.357.044.547.058a6.611,6.611,0,0,0,.69.029A6.428,6.428,0,0,0,11.357-1.4a4.352,4.352,0,0,0,1-.29V-5.316H11.1v-2.67h5.784v2.67H15V7.049H12.357V.983a2.588,2.588,0,0,1-.857.261,6.365,6.365,0,0,1-.9.058,3.268,3.268,0,0,1-.452-.029C10.155,1.505,10.167,1.73,10.167,1.94Zm0,0" transform="translate(-0.266 8.219)"/>
            </g>
          </g>
        </g>
        <g id="Group_404" data-name="Group 404" transform="translate(143.812 108.328)">
          <g id="Group_403" data-name="Group 403" transform="translate(0 0)">
            <g id="Group_402" data-name="Group 402">
              <path id="Path_104" data-name="Path 104" d="M1.595-2.381H0v-2.67H1.476a8.993,8.993,0,0,1-.381-1.19A5.438,5.438,0,0,1,.952-7.49a3.558,3.558,0,0,1,1.5-3.077,7.323,7.323,0,0,1,4.284-1.074,19.475,19.475,0,0,1,5.022.61,17.939,17.939,0,0,1,4.165,1.6,18.092,18.092,0,0,1,3.308,2.206,24.772,24.772,0,0,1,2.5,2.351H18.4A18.51,18.51,0,0,0,15.114-7a18.74,18.74,0,0,0-3.832-1.451A16.045,16.045,0,0,0,7.26-8.97,5.473,5.473,0,0,0,4.5-8.419a1.81,1.81,0,0,0-.881,1.684,4.062,4.062,0,0,0,.1.9,2.928,2.928,0,0,0,.333.784H6.117v2.67H4.237V9.984H1.595Zm0,0" transform="translate(0 11.641)"/>
            </g>
          </g>
        </g>
        <g id="Group_407" data-name="Group 407" transform="translate(149.633 114.917)">
          <g id="Group_406" data-name="Group 406">
            <g id="Group_405" data-name="Group 405">
              <path id="Path_105" data-name="Path 105" d="M16.161-5.423V6.942H13.5V5.955a7.384,7.384,0,0,1-3.761.929,7.288,7.288,0,0,1-2.88-.551A9.114,9.114,0,0,1,4.5,4.91,13.388,13.388,0,0,1,2.666,3.081,18.426,18.426,0,0,1,1.357,1.311,5.04,5.04,0,0,1,.762,0,3.836,3.836,0,0,1,.619-.953a2.337,2.337,0,0,1,.333-1.19,1.313,1.313,0,0,1,1.238-.61,2.034,2.034,0,0,1,1.547.7,3.708,3.708,0,0,0,.309-.958,6.831,6.831,0,0,0,.1-1.1A6,6,0,0,0,4-5.423H0v-2.67H18.018v2.67ZM11.306.44A2.648,2.648,0,0,0,12.5.179a3.918,3.918,0,0,0,1-.755V-5.423H6.617c.048.232.083.493.119.784a10.06,10.06,0,0,1,.048,1.016,5.07,5.07,0,0,1-.738,2.9A5.72,5.72,0,0,1,4.237,1.02a16.22,16.22,0,0,0,1.4,1.567,6.709,6.709,0,0,0,1.785,1.19,5.832,5.832,0,0,0,2.309.435,6.539,6.539,0,0,0,2.237-.319A7.567,7.567,0,0,0,13.5,3.168V2.094a4.906,4.906,0,0,1-1.119.552,4.7,4.7,0,0,1-1.476.2A3.366,3.366,0,0,1,8.426,1.92a3.655,3.655,0,0,1-.952-2.7A3.768,3.768,0,0,1,8.45-3.508a3.523,3.523,0,0,1,2.666-1.016c.22,0,.506.015.857.029a4.4,4.4,0,0,1,.928.145L12.686-2c-.161-.036-.345-.073-.547-.116a3.6,3.6,0,0,0-.666-.058C10.485-2.172,10-1.737,10-.866A1.244,1.244,0,0,0,10.378.15,1.456,1.456,0,0,0,11.306.44Zm0,0" transform="translate(0 8.094)"/>
            </g>
          </g>
        </g>
        <g id="Group_410" data-name="Group 410" transform="translate(167.371 114.917)">
          <g id="Group_409" data-name="Group 409">
            <g id="Group_408" data-name="Group 408">
              <path id="Path_106" data-name="Path 106" d="M0-5.423v-2.67H14.9v2.67H13.02V6.942H10.378V-.721A1.773,1.773,0,0,0,9.545-.4a2.525,2.525,0,0,0-.785.958,7.284,7.284,0,0,0-.666,1.858l-2.475-.9A10.421,10.421,0,0,1,6.069.034,3.922,3.922,0,0,0,5.4-.431,1.486,1.486,0,0,0,4.665-.6,1.209,1.209,0,0,0,3.713-.2,1.421,1.421,0,0,0,3.38.788a2.9,2.9,0,0,0,.286,1.248A6.5,6.5,0,0,0,4.641,3.4c.44.486,1.047,1.088,1.809,1.8L4.737,7.348A22.981,22.981,0,0,1,2.475,4.881,9.528,9.528,0,0,1,1.166,2.733,5.685,5.685,0,0,1,.738.556a4.318,4.318,0,0,1,.524-2.293A2.9,2.9,0,0,1,2.571-2.956a3.609,3.609,0,0,1,1.547-.377,4.846,4.846,0,0,1,1.738.29,5.636,5.636,0,0,1,1.523.929A3.95,3.95,0,0,1,10.33-3.333h.048v-2.09Zm0,0" transform="translate(0 8.094)"/>
            </g>
          </g>
        </g>
        <g id="Group_413" data-name="Group 413" transform="translate(187.744 114.685)">
          <g id="Group_412" data-name="Group 412" transform="translate(0)">
            <g id="Group_411" data-name="Group 411">
              <path id="Path_107" data-name="Path 107" d="M3.546-8.219A3.75,3.75,0,0,1,6.474-7.087a3.856,3.856,0,0,1,.69,1.306,8.179,8.179,0,0,1,.262,2.351v2.5h3.356V-5.316H8.806v-2.67h6.522v2.67h-1.88V7.049H10.782V1.708H7.426v.377a2.42,2.42,0,0,1-.357,1.509,1.215,1.215,0,0,1-1.023.435,1.672,1.672,0,0,1-.9-.319,3.923,3.923,0,0,1-.928-.842,6.752,6.752,0,0,1-.738-1.161A2.9,2.9,0,0,1,3.189.518,1.815,1.815,0,0,1,3.474-.5,1.241,1.241,0,0,1,4.593-.933h.19V-3.371a7.463,7.463,0,0,0-.1-1.335,2.334,2.334,0,0,0-.238-.755,1.058,1.058,0,0,0-.976-.522.8.8,0,0,0-.619.232.832.832,0,0,0-.214.581.961.961,0,0,0,.333.784,2.148,2.148,0,0,0,1.19.29L4.022-1.862A4.443,4.443,0,0,1,1.5-2.82,3.053,3.053,0,0,1,.547-5.287a3.024,3.024,0,0,1,.4-1.654A2.775,2.775,0,0,1,2.046-7.9,3.551,3.551,0,0,1,3.546-8.219Zm0,0" transform="translate(-0.547 8.219)"/>
            </g>
          </g>
        </g>
        <g id="Group_416" data-name="Group 416" transform="translate(202.214 114.917)">
          <g id="Group_415" data-name="Group 415">
            <g id="Group_414" data-name="Group 414">
              <path id="Path_108" data-name="Path 108" d="M4.237-5.423V6.942H1.595V-5.423H0v-2.67H6.117v2.67Zm0,0" transform="translate(0 8.094)"/>
            </g>
          </g>
        </g>
        <g id="Group_419" data-name="Group 419" transform="translate(208.034 114.917)">
          <g id="Group_418" data-name="Group 418">
            <g id="Group_417" data-name="Group 417">
              <path id="Path_109" data-name="Path 109" d="M8.259,5.2,6.546,7.348Q4.778,5.552,3.4,3.923A23.6,23.6,0,0,1,1.333,1.195a4.916,4.916,0,0,1-.6-1.219A3.978,3.978,0,0,1,.619-.953a2.337,2.337,0,0,1,.333-1.19,1.313,1.313,0,0,1,1.238-.61,2.1,2.1,0,0,1,1.666.842A2.726,2.726,0,0,0,4.9-4.146a6.555,6.555,0,0,0-.119-1.277H0v-2.67H8.973v2.67H7.379a6.246,6.246,0,0,1,.143.784,10.061,10.061,0,0,1,.048,1.016A4.75,4.75,0,0,1,6.736-.779,5.938,5.938,0,0,1,4.38,1.05c.506.624,1.095,1.306,1.761,2.061A29.65,29.65,0,0,0,8.259,5.2Zm0,0" transform="translate(0 8.094)"/>
            </g>
          </g>
        </g>
        <g id="Group_422" data-name="Group 422" transform="translate(216.705 114.917)">
          <g id="Group_421" data-name="Group 421">
            <g id="Group_420" data-name="Group 420">
              <path id="Path_110" data-name="Path 110" d="M10.782-5.423V6.942H8.116V-.286H6.307a6.875,6.875,0,0,0-1.619.145,1.782,1.782,0,0,0-.857.435A1.713,1.713,0,0,0,3.4,1.543a3,3,0,0,0,.619,1.713A12.018,12.018,0,0,0,5.831,5.2L4.094,7.348A19.169,19.169,0,0,1,2.4,5.432a9.726,9.726,0,0,1-1.19-2.119A6.016,6.016,0,0,1,.762.991,4.342,4.342,0,0,1,1.023-.576a3.5,3.5,0,0,1,.69-1.161,3.608,3.608,0,0,1,1.428-.9,7.944,7.944,0,0,1,2.4-.29H8.116v-2.5H0v-2.67H12.639v2.67Zm0,0" transform="translate(0 8.094)"/>
            </g>
          </g>
        </g>
        <g id="Group_425" data-name="Group 425" transform="translate(223.894 108.328)">
          <g id="Group_424" data-name="Group 424" transform="translate(0 0)">
            <g id="Group_423" data-name="Group 423">
              <path id="Path_111" data-name="Path 111" d="M-2.772-4.878a7.257,7.257,0,0,1-.476-1.509,6.747,6.747,0,0,1-.143-1.364,3.874,3.874,0,0,1,1.023-2.816A3.607,3.607,0,0,1,.394-11.641a3.908,3.908,0,0,1,2.618.9A6.307,6.307,0,0,1,4.75-8.361,17.55,17.55,0,0,1,5.821-5.052H7.891v2.67H6.011V9.984H3.369V-2.381H1.774v-2.67h1.69a9.752,9.752,0,0,0-1.19-2.932A1.926,1.926,0,0,0,.656-9a1.184,1.184,0,0,0-1.047.494A1.956,1.956,0,0,0-.749-7.287,5.21,5.21,0,0,0-.582-5.952,10.725,10.725,0,0,0-.2-4.849Zm0,0" transform="translate(3.391 11.641)"/>
            </g>
          </g>
        </g>
        <g id="Group_428" data-name="Group 428" transform="translate(234.879 114.917)">
          <g id="Group_427" data-name="Group 427">
            <g id="Group_426" data-name="Group 426">
              <path id="Path_112" data-name="Path 112" d="M12.853-8.094v2.67H11V6.942H8.331V3.4a4.788,4.788,0,0,1-3.047.987,3.624,3.624,0,0,1-2.309-.755A5.248,5.248,0,0,1,1.4,1.572a10.627,10.627,0,0,1-.833-2.99,3.407,3.407,0,0,0,1.69-.813A2.192,2.192,0,0,0,2.809-3.8a3.21,3.21,0,0,0-.119-.871A6.187,6.187,0,0,0,2.4-5.423H0v-2.67ZM3.427-.024a3.192,3.192,0,0,0,.809,1.306,1.929,1.929,0,0,0,1.285.435A3.284,3.284,0,0,0,8.331-.024v-5.4H4.951a6.275,6.275,0,0,1,.381,1.045,4.536,4.536,0,0,1,.143,1.19A3.263,3.263,0,0,1,3.427-.024Zm0,0" transform="translate(0 8.094)"/>
            </g>
          </g>
        </g>
        <g id="Group_431" data-name="Group 431" transform="translate(252.38 114.917)">
          <g id="Group_430" data-name="Group 430">
            <g id="Group_429" data-name="Group 429">
              <path id="Path_113" data-name="Path 113" d="M10.782-5.423V6.942H8.116V-.286H6.307a6.875,6.875,0,0,0-1.619.145,1.782,1.782,0,0,0-.857.435A1.713,1.713,0,0,0,3.4,1.543a3,3,0,0,0,.619,1.713A12.018,12.018,0,0,0,5.831,5.2L4.094,7.348A19.169,19.169,0,0,1,2.4,5.432a9.726,9.726,0,0,1-1.19-2.119A6.016,6.016,0,0,1,.762.991,4.342,4.342,0,0,1,1.023-.576a3.5,3.5,0,0,1,.69-1.161,3.608,3.608,0,0,1,1.428-.9,7.944,7.944,0,0,1,2.4-.29H8.116v-2.5H0v-2.67H12.639v2.67Zm0,0" transform="translate(0 8.094)"/>
            </g>
          </g>
        </g>
        <g id="Group_434" data-name="Group 434" transform="translate(264.734 114.917)">
          <g id="Group_433" data-name="Group 433">
            <g id="Group_432" data-name="Group 432">
              <path id="Path_114" data-name="Path 114" d="M16.566-5.423H10.187v3.367a3.6,3.6,0,0,1,2.19-.7,2.908,2.908,0,0,1,2.309,1.074,4.432,4.432,0,0,1,.9,2.932,10.1,10.1,0,0,1-.333,2.409A11.888,11.888,0,0,1,14.21,6.3l-2.333-1.6A8.178,8.178,0,0,0,12.615,3.2a4.663,4.663,0,0,0,.309-1.654A1.939,1.939,0,0,0,12.615.295a.944.944,0,0,0-.785-.377,1.382,1.382,0,0,0-.881.348,5.425,5.425,0,0,0-.762.7V6.942H7.545V3.865a5.929,5.929,0,0,1-1.309.726,4.6,4.6,0,0,1-1.547.232,4.271,4.271,0,0,1-2-.464,3.646,3.646,0,0,1-1.428-1.48A5.1,5.1,0,0,1,.738.44a4.883,4.883,0,0,1,.524-2.322,3.766,3.766,0,0,1,1.5-1.509,4.322,4.322,0,0,1,2.19-.552c.363,0,.738.022,1.119.058a6.15,6.15,0,0,1,.881.145l-.19,2.7a4.8,4.8,0,0,0-1.4-.2A2.13,2.13,0,0,0,3.9-.779,1.492,1.492,0,0,0,3.38.44a1.568,1.568,0,0,0,.5,1.335,1.839,1.839,0,0,0,1.071.348,2.573,2.573,0,0,0,1.476-.435A5.464,5.464,0,0,0,7.545.614V-5.423H0v-2.67H16.566Zm0,0" transform="translate(0 8.094)"/>
            </g>
          </g>
        </g>
        <g id="Group_437" data-name="Group 437" transform="translate(281.026 114.917)">
          <g id="Group_436" data-name="Group 436">
            <g id="Group_435" data-name="Group 435">
              <path id="Path_115" data-name="Path 115" d="M0-8.094H12.52v2.67H10.663V6.942H8V.556H4.879v.61a2.191,2.191,0,0,1-.357,1.393,1.135,1.135,0,0,1-.952.435,1.838,1.838,0,0,1-.976-.319A4.684,4.684,0,0,1,1.619,1.8,5.979,5.979,0,0,1,.9.643,2.73,2.73,0,0,1,.619-.518a2.284,2.284,0,0,1,.262-1.1c.173-.327.553-.493,1.142-.493H8V-5.423H0Zm0,0" transform="translate(0 8.094)"/>
            </g>
          </g>
        </g>
        <g id="Group_440" data-name="Group 440" transform="translate(288.096 108.328)">
          <g id="Group_439" data-name="Group 439" transform="translate(0 0)">
            <g id="Group_438" data-name="Group 438">
              <path id="Path_116" data-name="Path 116" d="M-2.772-4.878a7.257,7.257,0,0,1-.476-1.509,6.747,6.747,0,0,1-.143-1.364,3.874,3.874,0,0,1,1.023-2.816A3.607,3.607,0,0,1,.394-11.641a3.908,3.908,0,0,1,2.618.9A6.307,6.307,0,0,1,4.75-8.361,17.55,17.55,0,0,1,5.821-5.052H7.891v2.67H6.011V9.984H3.369V-2.381H1.774v-2.67h1.69a9.752,9.752,0,0,0-1.19-2.932A1.926,1.926,0,0,0,.656-9a1.184,1.184,0,0,0-1.047.494A1.956,1.956,0,0,0-.749-7.287,5.21,5.21,0,0,0-.582-5.952,10.725,10.725,0,0,0-.2-4.849Zm0,0" transform="translate(3.391 11.641)"/>
            </g>
          </g>
        </g>
        <g id="Group_443" data-name="Group 443" transform="translate(299.081 114.917)">
          <g id="Group_442" data-name="Group 442">
            <g id="Group_441" data-name="Group 441">
              <path id="Path_117" data-name="Path 117" d="M16.566-5.423H10.187v3.367a3.6,3.6,0,0,1,2.19-.7,2.908,2.908,0,0,1,2.309,1.074,4.432,4.432,0,0,1,.9,2.932,10.1,10.1,0,0,1-.333,2.409A11.888,11.888,0,0,1,14.21,6.3l-2.333-1.6A8.178,8.178,0,0,0,12.615,3.2a4.663,4.663,0,0,0,.309-1.654A1.939,1.939,0,0,0,12.615.295a.944.944,0,0,0-.785-.377,1.382,1.382,0,0,0-.881.348,5.425,5.425,0,0,0-.762.7V6.942H7.545V3.865a5.929,5.929,0,0,1-1.309.726,4.6,4.6,0,0,1-1.547.232,4.271,4.271,0,0,1-2-.464,3.646,3.646,0,0,1-1.428-1.48A5.1,5.1,0,0,1,.738.44a4.883,4.883,0,0,1,.524-2.322,3.766,3.766,0,0,1,1.5-1.509,4.322,4.322,0,0,1,2.19-.552c.363,0,.738.022,1.119.058a6.15,6.15,0,0,1,.881.145l-.19,2.7a4.8,4.8,0,0,0-1.4-.2A2.13,2.13,0,0,0,3.9-.779,1.492,1.492,0,0,0,3.38.44a1.568,1.568,0,0,0,.5,1.335,1.839,1.839,0,0,0,1.071.348,2.573,2.573,0,0,0,1.476-.435A5.464,5.464,0,0,0,7.545.614V-5.423H0v-2.67H16.566Zm0,0" transform="translate(0 8.094)"/>
            </g>
          </g>
        </g>
        <g id="Group_446" data-name="Group 446" transform="translate(305.901 108.328)">
          <g id="Group_445" data-name="Group 445" transform="translate(0 0)">
            <g id="Group_444" data-name="Group 444">
              <path id="Path_118" data-name="Path 118" d="M4.849-2.381H3.254v-2.67H4.468A11.336,11.336,0,0,0,1.8-7.925,5.061,5.061,0,0,0-1.22-8.941a2.462,2.462,0,0,0-1.714.551,1.878,1.878,0,0,0-.6,1.48,4.14,4.14,0,0,0,.143,1.1,4.522,4.522,0,0,0,.357.929H-5.6a10.75,10.75,0,0,1-.452-1.335,5.278,5.278,0,0,1-.167-1.306,3.9,3.9,0,0,1,1.19-2.99,4.664,4.664,0,0,1,3.38-1.132,7.8,7.8,0,0,1,3.784.9,9.86,9.86,0,0,1,2.88,2.38A24.4,24.4,0,0,1,7.372-5.052h2v2.67H7.491V9.984H4.849Zm0,0" transform="translate(6.219 11.641)"/>
            </g>
          </g>
        </g>
        <g id="Group_449" data-name="Group 449" transform="translate(326.125 108.328)">
          <g id="Group_448" data-name="Group 448" transform="translate(0 0)">
            <g id="Group_447" data-name="Group 447">
              <path id="Path_119" data-name="Path 119" d="M1.595-2.381H0v-2.67H1.476a8.993,8.993,0,0,1-.381-1.19A5.438,5.438,0,0,1,.952-7.49a3.693,3.693,0,0,1,1.381-3.048,6.444,6.444,0,0,1,4.046-1.1,14.894,14.894,0,0,1,4.237.581,14.673,14.673,0,0,1,3.57,1.538,17.464,17.464,0,0,1,2.9,2.206,23.457,23.457,0,0,1,2.285,2.438H16.161a14.618,14.618,0,0,0-4.332-2.99,11.954,11.954,0,0,0-4.975-1.1c-2.16,0-3.237.74-3.237,2.206a4.425,4.425,0,0,0,.1.929,2.928,2.928,0,0,0,.333.784H6.117v2.67H4.237V9.984H1.595Zm0,0" transform="translate(0 11.641)"/>
            </g>
          </g>
        </g>
        <g id="Group_452" data-name="Group 452" transform="translate(332.659 114.685)">
          <g id="Group_451" data-name="Group 451" transform="translate(0)">
            <g id="Group_450" data-name="Group 450">
              <path id="Path_120" data-name="Path 120" d="M2.444,3.45a2.066,2.066,0,0,1-1.381-.493,1.969,1.969,0,0,1-.6-1.567A2.087,2.087,0,0,1,.9.025,1.546,1.546,0,0,1,2.135-.5a2.374,2.374,0,0,1,.881.2,3.858,3.858,0,0,1,.976.639A3.449,3.449,0,0,0,5.3-1.02a4.635,4.635,0,0,0,.524-2.293A3.072,3.072,0,0,0,5.348-5.2a1.371,1.371,0,0,0-1.142-.639.849.849,0,0,0-.619.232.854.854,0,0,0-.238.639A1.24,1.24,0,0,0,3.73-4.1a2.86,2.86,0,0,0,1.547.551L4.729-1.369A4.594,4.594,0,0,1,1.778-2.617,3.448,3.448,0,0,1,.85-5.026,3.194,3.194,0,0,1,1.683-7.29a3.123,3.123,0,0,1,2.452-.929,4.256,4.256,0,0,1,2.095.551A3.837,3.837,0,0,1,7.824-6.042a5.749,5.749,0,0,1,.619,2.816A7.527,7.527,0,0,1,7.776-.062,5.916,5.916,0,0,1,5.967,2.289,18.639,18.639,0,0,1,7.276,3.914c.428.581.815,1.147,1.166,1.684L6.491,7.252c-.524-.849-1.023-1.6-1.5-2.235S4.1,3.82,3.706,3.334A6.434,6.434,0,0,1,2.444,3.45ZM13.012-5.316V7.049H10.37V-5.316H8.895v-2.67h6v2.67Zm0,0" transform="translate(-0.469 8.219)"/>
            </g>
          </g>
        </g>
        <g id="Group_455" data-name="Group 455" transform="translate(347.531 114.685)">
          <g id="Group_454" data-name="Group 454" transform="translate(0)">
            <g id="Group_453" data-name="Group 453">
              <path id="Path_121" data-name="Path 121" d="M13.861-5.316V7.049H11.219V-.324A5.718,5.718,0,0,1,9.7.344a8.459,8.459,0,0,1-2,.2,7.23,7.23,0,0,1-2.975-.7,6.146,6.146,0,0,0-1.19,1.1A1.8,1.8,0,0,0,3.15,2.028a1.5,1.5,0,0,0,.428,1.1,2.145,2.145,0,0,0,1.476.406h.214A3.721,3.721,0,0,1,5.245,3.1a1.579,1.579,0,0,1,.4-1.132,1.507,1.507,0,0,1,1.19-.464,1.876,1.876,0,0,1,1.523.668,2.13,2.13,0,0,1,.571,1.451A2.635,2.635,0,0,1,8.7,4.814a1.83,1.83,0,0,1-.643.726c.19.29.393.6.619.9s.5.6.785.929L7.6,8.7A17.158,17.158,0,0,1,5.935,6.12c-.179,0-.351.015-.524.029H5.054A5.59,5.59,0,0,1,2.46,5.627,3.668,3.668,0,0,1,.96,4.175,4.4,4.4,0,0,1,.484,2.115a3.768,3.768,0,0,1,.5-2A6.4,6.4,0,0,1,2.579-1.543,4.386,4.386,0,0,1,1.1-4.852a3.385,3.385,0,0,1,.9-2.38,3.626,3.626,0,0,1,2.761-.987,4.057,4.057,0,0,1,2.69.842A2.93,2.93,0,0,1,8.482-5,4.084,4.084,0,0,1,8.2-3.546a4.605,4.605,0,0,1-1,1.509,4.418,4.418,0,0,0,.547.029,5.2,5.2,0,0,0,2-.348,6.585,6.585,0,0,0,1.476-.9V-5.316h-1.5v-2.67h6v2.67ZM3.65-4.532a1.669,1.669,0,0,0,.309.958,3.452,3.452,0,0,0,.785.755,3.261,3.261,0,0,0,.9-.9,1.705,1.705,0,0,0,.286-.9,1.338,1.338,0,0,0-.262-.813.948.948,0,0,0-.857-.377,1.127,1.127,0,0,0-.857.348A1.282,1.282,0,0,0,3.65-4.532Zm0,0" transform="translate(-0.484 8.219)"/>
            </g>
          </g>
        </g>
        <g id="Group_458" data-name="Group 458" transform="translate(362.492 114.917)">
          <g id="Group_457" data-name="Group 457">
            <g id="Group_456" data-name="Group 456">
              <path id="Path_122" data-name="Path 122" d="M4.237-5.423V6.942H1.595V-5.423H0v-2.67H6.117v2.67Zm0,0" transform="translate(0 8.094)"/>
            </g>
          </g>
        </g>
        <g id="Group_461" data-name="Group 461" transform="translate(373.242 114.917)">
          <g id="Group_460" data-name="Group 460">
            <g id="Group_459" data-name="Group 459">
              <path id="Path_123" data-name="Path 123" d="M10.544-5.423V6.942H7.9V3.081a4.5,4.5,0,0,1-1.357.639A6.844,6.844,0,0,1,5,3.865,3.582,3.582,0,0,1,3.4,3.546a2.941,2.941,0,0,1-1.095-.871,4.987,4.987,0,0,1-.714-1.567,9.893,9.893,0,0,1-.238-2.5V-5.423H0v-2.67H12.425v2.67Zm-2.642,0H4v3.831a8.87,8.87,0,0,0,.1,1.6,1.888,1.888,0,0,0,.357.813,1.316,1.316,0,0,0,1.095.406A2.357,2.357,0,0,0,6.926.788a5.512,5.512,0,0,0,.976-.9Zm0,0" transform="translate(0 8.094)"/>
            </g>
          </g>
        </g>
        <g id="Group_464" data-name="Group 464" transform="translate(385.378 108.328)">
          <g id="Group_463" data-name="Group 463" transform="translate(0 0)">
            <g id="Group_462" data-name="Group 462">
              <path id="Path_124" data-name="Path 124" d="M1.595-2.381H0v-2.67H1.5A6.858,6.858,0,0,1,.952-7.635a3.979,3.979,0,0,1,1.071-2.932,4.105,4.105,0,0,1,3-1.074,5.871,5.871,0,0,1,3.261.929,9,9,0,0,1,2.5,2.5,17.645,17.645,0,0,1,1.809,3.338H9.949a9.894,9.894,0,0,0-2.118-2.99A3.609,3.609,0,0,0,5.355-8.912a1.653,1.653,0,0,0-1.285.493,1.883,1.883,0,0,0-.452,1.364,4.7,4.7,0,0,0,.119,1.1,4.207,4.207,0,0,0,.309.9H6.117v2.67H4.237V9.984H1.595Zm0,0" transform="translate(0 11.641)"/>
            </g>
          </g>
        </g>
        <g id="Group_467" data-name="Group 467" transform="translate(391.198 114.917)">
          <g id="Group_466" data-name="Group 466">
            <g id="Group_465" data-name="Group 465">
              <path id="Path_125" data-name="Path 125" d="M8.259,5.2,6.546,7.348Q4.778,5.552,3.4,3.923A23.6,23.6,0,0,1,1.333,1.195a4.916,4.916,0,0,1-.6-1.219A3.978,3.978,0,0,1,.619-.953a2.337,2.337,0,0,1,.333-1.19,1.313,1.313,0,0,1,1.238-.61,2.1,2.1,0,0,1,1.666.842A2.726,2.726,0,0,0,4.9-4.146a6.555,6.555,0,0,0-.119-1.277H0v-2.67H8.973v2.67H7.379a6.246,6.246,0,0,1,.143.784,10.061,10.061,0,0,1,.048,1.016A4.75,4.75,0,0,1,6.736-.779,5.938,5.938,0,0,1,4.38,1.05c.506.624,1.095,1.306,1.761,2.061A29.65,29.65,0,0,0,8.259,5.2Zm0,0" transform="translate(0 8.094)"/>
            </g>
          </g>
        </g>
        <g id="Group_470" data-name="Group 470" transform="translate(399.869 114.917)">
          <g id="Group_469" data-name="Group 469">
            <g id="Group_468" data-name="Group 468">
              <path id="Path_126" data-name="Path 126" d="M12.663-8.094v2.67h-1.88V6.942H8.14V2.994a5.564,5.564,0,0,1-1.428.668,5.434,5.434,0,0,1-1.595.2,3.8,3.8,0,0,1-1.642-.319,2.886,2.886,0,0,1-1.119-.871,4.5,4.5,0,0,1-.762-1.567,9.893,9.893,0,0,1-.238-2.5V-5.423H0v-2.67ZM8.14-5.423H4.927L8.14-.315ZM4.427.817a1.461,1.461,0,0,0,1.166.406,2.55,2.55,0,0,0,.762-.116A6.9,6.9,0,0,0,7.069.788L3.927-4.2v2.612A7.04,7.04,0,0,0,4.046,0,2.162,2.162,0,0,0,4.427.817Zm0,0" transform="translate(0 8.094)"/>
            </g>
          </g>
        </g>
        <g id="Group_473" data-name="Group 473" transform="translate(412.242 114.917)">
          <g id="Group_472" data-name="Group 472">
            <g id="Group_471" data-name="Group 471">
              <path id="Path_127" data-name="Path 127" d="M8.45,8.6c-.256-.544-.512-1.1-.762-1.684S7.218,5.8,7.045,5.345a6.9,6.9,0,0,1-1.166.087,6.826,6.826,0,0,1-1.857-.261,5.238,5.238,0,0,1-1.666-.813A4.113,4.113,0,0,1,1.166,2.82,5.823,5.823,0,0,1,.738.44a4.921,4.921,0,0,1,.309-1.829,4.008,4.008,0,0,1,.9-1.335,4.122,4.122,0,0,1,1.5-.929A7.556,7.556,0,0,1,5.4-4.059V-5.423H0v-2.67H11.33v2.67H8.069v4.035H7.045a11.148,11.148,0,0,0-1.785.116A3.359,3.359,0,0,0,4.189-.9,1.69,1.69,0,0,0,3.356.672a2.016,2.016,0,0,0,.619,1.509,3.043,3.043,0,0,0,2.118.581h.143a.844.844,0,0,0,.214-.029,4.749,4.749,0,0,1-.024-.493A1.471,1.471,0,0,1,6.95.962,1.822,1.822,0,0,1,8.093.556a1.914,1.914,0,0,1,1.595.7,2.456,2.456,0,0,1,.571,1.6,2.289,2.289,0,0,1-.309,1.306,2.876,2.876,0,0,1-.762.7c.381.776.857,1.64,1.428,2.583Zm0,0" transform="translate(0 8.094)"/>
            </g>
          </g>
        </g>
      </g>
      <g id="Group_534" data-name="Group 534" transform="translate(415.797 318.468)">
        <g id="Group_290" data-name="Group 290" transform="translate(114.52 135.053)">
          <g id="Group_289" data-name="Group 289" transform="translate(0 0)">
            <g id="Group_288" data-name="Group 288">
              <path id="Path_66" data-name="Path 66" d="M7.579-.346h-4.2l-.8,2.311H.047L4.362-9.25H6.579L10.913,1.966H8.383ZM4.029-2.221h2.9L5.48-6.408Zm0,0" transform="translate(-0.047 9.25)"/>
            </g>
          </g>
        </g>
        <g id="Group_293" data-name="Group 293" transform="translate(126.438 134.416)">
          <g id="Group_292" data-name="Group 292" transform="translate(0 0)">
            <g id="Group_291" data-name="Group 291">
              <path id="Path_67" data-name="Path 67" d="M3.111,2.1H.8V-9.75H3.111Zm0,0" transform="translate(-0.797 9.75)"/>
            </g>
          </g>
        </g>
        <g id="Group_296" data-name="Group 296" transform="translate(130.764 134.416)">
          <g id="Group_295" data-name="Group 295" transform="translate(0 0)">
            <g id="Group_294" data-name="Group 294">
              <path id="Path_68" data-name="Path 68" d="M3.111,2.1H.8V-9.75H3.111Zm0,0" transform="translate(-0.797 9.75)"/>
            </g>
          </g>
        </g>
        <g id="Group_299" data-name="Group 299" transform="translate(139.349 135.053)">
          <g id="Group_298" data-name="Group 298" transform="translate(0 0)">
            <g id="Group_297" data-name="Group 297">
              <path id="Path_69" data-name="Path 69" d="M3.327,1.966H.953V-9.25H3.327Zm0,0" transform="translate(-0.953 9.25)"/>
            </g>
          </g>
        </g>
        <g id="Group_302" data-name="Group 302" transform="translate(143.751 137.34)">
          <g id="Group_301" data-name="Group 301" transform="translate(0 0)">
            <g id="Group_300" data-name="Group 300">
              <path id="Path_70" data-name="Path 70" d="M2.83-6.841l.078,1.017A2.979,2.979,0,0,1,5.379-7a2.49,2.49,0,0,1,2.04.817,3.939,3.939,0,0,1,.687,2.452V1.929H5.811v-5.6a1.458,1.458,0,0,0-.333-1.076,1.406,1.406,0,0,0-1.059-.339,1.577,1.577,0,0,0-1.451.837V1.929H.672v-8.77Zm0,0" transform="translate(-0.672 7)"/>
            </g>
          </g>
        </g>
        <g id="Group_305" data-name="Group 305" transform="translate(152.575 134.416)">
          <g id="Group_304" data-name="Group 304" transform="translate(0 0)">
            <g id="Group_303" data-name="Group 303">
              <path id="Path_71" data-name="Path 71" d="M.422-2.128a4.943,4.943,0,0,1,.9-3.117A2.961,2.961,0,0,1,3.8-6.4a2.686,2.686,0,0,1,2.079.912V-9.75H8.189V2.111H6.11l-.118-.893A2.745,2.745,0,0,1,3.776,2.263,2.944,2.944,0,0,1,1.344,1.1,5.039,5.039,0,0,1,.422-2.128Zm2.295.152A3.285,3.285,0,0,0,3.129-.17,1.4,1.4,0,0,0,4.364.457a1.544,1.544,0,0,0,1.51-.874V-3.705A1.533,1.533,0,0,0,4.384-4.58Q2.714-4.58,2.717-1.976Zm0,0" transform="translate(-0.422 9.75)"/>
            </g>
          </g>
        </g>
        <g id="Group_308" data-name="Group 308" transform="translate(162.101 134.615)">
          <g id="Group_307" data-name="Group 307" transform="translate(0 0)">
            <g id="Group_306" data-name="Group 306">
              <path id="Path_72" data-name="Path 72" d="M3.139,2.061H.825V-6.291H3.139ZM.688-8.436a1.084,1.084,0,0,1,.353-.835,1.349,1.349,0,0,1,.942-.323,1.349,1.349,0,0,1,.942.323,1.084,1.084,0,0,1,.353.835,1.113,1.113,0,0,1-.353.835,1.327,1.327,0,0,1-.942.323A1.327,1.327,0,0,1,1.041-7.6,1.113,1.113,0,0,1,.688-8.436Zm0,0" transform="translate(-0.688 9.594)"/>
            </g>
          </g>
        </g>
        <g id="Group_311" data-name="Group 311" transform="translate(166.222 137.34)">
          <g id="Group_310" data-name="Group 310" transform="translate(0 0)">
            <g id="Group_309" data-name="Group 309">
              <path id="Path_73" data-name="Path 73" d="M5.773,1.929a2.583,2.583,0,0,1-.235-.777,2.789,2.789,0,0,1-2.177.937,3.057,3.057,0,0,1-2.1-.737A2.463,2.463,0,0,1,.437-.542a2.468,2.468,0,0,1,1-2.113A4.976,4.976,0,0,1,4.38-3.432H5.439v-.5a1.418,1.418,0,0,0-.314-.957,1.156,1.156,0,0,0-.961-.379,1.293,1.293,0,0,0-.9.3.931.931,0,0,0-.333.757H.614a2.309,2.309,0,0,1,.471-1.4A3.017,3.017,0,0,1,2.4-6.621,4.578,4.578,0,0,1,4.282-7a3.7,3.7,0,0,1,2.53.817,2.88,2.88,0,0,1,.942,2.292V-.1A4.164,4.164,0,0,0,8.087,1.79v.14ZM3.87.3A2.017,2.017,0,0,0,4.812.076a1.516,1.516,0,0,0,.628-.618V-2.057H4.576c-1.152,0-1.765.409-1.844,1.216V-.7a.94.94,0,0,0,.294.718A1.2,1.2,0,0,0,3.87.3Zm0,0" transform="translate(-0.437 7)"/>
            </g>
          </g>
        </g>
        <g id="Group_314" data-name="Group 314" transform="translate(179.197 134.894)">
          <g id="Group_313" data-name="Group 313" transform="translate(0 0)">
            <g id="Group_312" data-name="Group 312">
              <path id="Path_74" data-name="Path 74" d="M10-1.729A3.922,3.922,0,0,1,8.609,1.116,4.9,4.9,0,0,1,5.333,2.16,4.437,4.437,0,0,1,1.822.718a5.856,5.856,0,0,1-1.275-4v-.683a6.554,6.554,0,0,1,.588-2.846,4.344,4.344,0,0,1,1.687-1.9,4.834,4.834,0,0,1,2.55-.664A4.791,4.791,0,0,1,8.589-8.332,4.234,4.234,0,0,1,10.021-5.41H7.628A2.279,2.279,0,0,0,7-6.985a2.332,2.332,0,0,0-1.628-.493,2.087,2.087,0,0,0-1.8.835,4.559,4.559,0,0,0-.608,2.561v.854A4.892,4.892,0,0,0,3.528-.553a2.047,2.047,0,0,0,1.8.835A2.339,2.339,0,0,0,6.981-.212a2.194,2.194,0,0,0,.628-1.518Zm0,0" transform="translate(-0.547 9.375)"/>
            </g>
          </g>
        </g>
        <g id="Group_317" data-name="Group 317" transform="translate(189.736 137.34)">
          <g id="Group_316" data-name="Group 316" transform="translate(0 0)">
            <g id="Group_315" data-name="Group 315">
              <path id="Path_75" data-name="Path 75" d="M.422-2.535a5.238,5.238,0,0,1,.49-2.312A3.61,3.61,0,0,1,2.325-6.442,4.174,4.174,0,0,1,4.482-7,3.873,3.873,0,0,1,7.326-5.9a4.3,4.3,0,0,1,1.236,2.95l.02.6A4.572,4.572,0,0,1,7.464.873,3.8,3.8,0,0,1,4.5,2.089,3.845,3.845,0,0,1,1.52.873a4.731,4.731,0,0,1-1.1-3.309Zm2.295.179A3.3,3.3,0,0,0,3.168-.462,1.539,1.539,0,0,0,4.5.2,1.536,1.536,0,0,0,5.816-.442a3.65,3.65,0,0,0,.471-2.093,3.3,3.3,0,0,0-.471-1.894,1.538,1.538,0,0,0-1.334-.678,1.516,1.516,0,0,0-1.314.678A3.707,3.707,0,0,0,2.717-2.356Zm0,0" transform="translate(-0.422 7)"/>
            </g>
          </g>
        </g>
        <g id="Group_320" data-name="Group 320" transform="translate(199.275 137.499)">
          <g id="Group_319" data-name="Group 319" transform="translate(0 0)">
            <g id="Group_318" data-name="Group 318">
              <path id="Path_76" data-name="Path 76" d="M5.874,1A2.838,2.838,0,0,1,3.52,2.054a2.7,2.7,0,0,1-2.118-.8A3.535,3.535,0,0,1,.656-1.135v-5.74H2.971v5.661c0,.917.4,1.375,1.216,1.375A1.647,1.647,0,0,0,5.8-.656V-6.875H8.11v8.77H5.952Zm0,0" transform="translate(-0.656 6.875)"/>
            </g>
          </g>
        </g>
        <g id="Group_323" data-name="Group 323" transform="translate(208.443 137.34)">
          <g id="Group_322" data-name="Group 322" transform="translate(0 0)">
            <g id="Group_321" data-name="Group 321">
              <path id="Path_77" data-name="Path 77" d="M2.83-6.841l.078,1.017A2.979,2.979,0,0,1,5.379-7a2.49,2.49,0,0,1,2.04.817,3.939,3.939,0,0,1,.687,2.452V1.929H5.811v-5.6a1.458,1.458,0,0,0-.333-1.076,1.406,1.406,0,0,0-1.059-.339,1.577,1.577,0,0,0-1.451.837V1.929H.672v-8.77Zm0,0" transform="translate(-0.672 7)"/>
            </g>
          </g>
        </g>
        <g id="Group_326" data-name="Group 326" transform="translate(217.285 137.34)">
          <g id="Group_325" data-name="Group 325" transform="translate(0 0)">
            <g id="Group_324" data-name="Group 324">
              <path id="Path_78" data-name="Path 78" d="M4.364.2a1.5,1.5,0,0,0,1.02-.339A1.27,1.27,0,0,0,5.816-1.1H7.974A2.967,2.967,0,0,1,7.5.534,3.23,3.23,0,0,1,6.208,1.69a4.116,4.116,0,0,1-1.8.4A3.732,3.732,0,0,1,1.481.893,4.787,4.787,0,0,1,.422-2.4v-.159A4.694,4.694,0,0,1,1.481-5.784,3.658,3.658,0,0,1,4.384-7a3.562,3.562,0,0,1,2.589.937,3.365,3.365,0,0,1,1,2.491H5.816a1.577,1.577,0,0,0-.432-1.1,1.343,1.343,0,0,0-1.04-.438,1.378,1.378,0,0,0-1.216.6,3.5,3.5,0,0,0-.412,1.933v.239A3.532,3.532,0,0,0,3.129-.383,1.41,1.41,0,0,0,4.364.2Zm0,0" transform="translate(-0.422 7)"/>
            </g>
          </g>
        </g>
        <g id="Group_329" data-name="Group 329" transform="translate(226.141 134.615)">
          <g id="Group_328" data-name="Group 328" transform="translate(0 0)">
            <g id="Group_327" data-name="Group 327">
              <path id="Path_79" data-name="Path 79" d="M3.139,2.061H.825V-6.291H3.139ZM.688-8.436a1.084,1.084,0,0,1,.353-.835,1.349,1.349,0,0,1,.942-.323,1.349,1.349,0,0,1,.942.323,1.084,1.084,0,0,1,.353.835,1.113,1.113,0,0,1-.353.835,1.327,1.327,0,0,1-.942.323A1.327,1.327,0,0,1,1.041-7.6,1.113,1.113,0,0,1,.688-8.436Zm0,0" transform="translate(-0.688 9.594)"/>
            </g>
          </g>
        </g>
        <g id="Group_332" data-name="Group 332" transform="translate(230.613 134.416)">
          <g id="Group_331" data-name="Group 331" transform="translate(0 0)">
            <g id="Group_330" data-name="Group 330">
              <path id="Path_80" data-name="Path 80" d="M3.111,2.1H.8V-9.75H3.111Zm0,0" transform="translate(-0.797 9.75)"/>
            </g>
          </g>
        </g>
        <g id="Group_335" data-name="Group 335" transform="translate(238.255 134.236)">
          <g id="Group_334" data-name="Group 334" transform="translate(0 0)">
            <g id="Group_333" data-name="Group 333">
              <path id="Path_81" data-name="Path 81" d="M1.462,2.142v-6.71H.187V-6.222H1.462v-.7a2.872,2.872,0,0,1,.824-2.186A3.307,3.307,0,0,1,4.62-9.891,5.034,5.034,0,0,1,5.8-9.72l-.02,1.73a3.014,3.014,0,0,0-.706-.076c-.863,0-1.295.394-1.295,1.179v.665H5.483v1.654H3.777v6.71Zm0,0" transform="translate(-0.187 9.891)"/>
            </g>
          </g>
        </g>
        <g id="Group_338" data-name="Group 338" transform="translate(244.411 137.34)">
          <g id="Group_337" data-name="Group 337" transform="translate(0 0)">
            <g id="Group_336" data-name="Group 336">
              <path id="Path_82" data-name="Path 82" d="M.422-2.535a5.238,5.238,0,0,1,.49-2.312A3.61,3.61,0,0,1,2.325-6.442,4.174,4.174,0,0,1,4.482-7,3.873,3.873,0,0,1,7.326-5.9a4.3,4.3,0,0,1,1.236,2.95l.02.6A4.572,4.572,0,0,1,7.464.873,3.8,3.8,0,0,1,4.5,2.089,3.845,3.845,0,0,1,1.52.873a4.731,4.731,0,0,1-1.1-3.309Zm2.295.179A3.3,3.3,0,0,0,3.168-.462,1.539,1.539,0,0,0,4.5.2,1.536,1.536,0,0,0,5.816-.442a3.65,3.65,0,0,0,.471-2.093,3.3,3.3,0,0,0-.471-1.894,1.538,1.538,0,0,0-1.334-.678,1.516,1.516,0,0,0-1.314.678A3.707,3.707,0,0,0,2.717-2.356Zm0,0" transform="translate(-0.422 7)"/>
            </g>
          </g>
        </g>
        <g id="Group_341" data-name="Group 341" transform="translate(254.006 137.34)">
          <g id="Group_340" data-name="Group 340" transform="translate(0 0)">
            <g id="Group_339" data-name="Group 339">
              <path id="Path_83" data-name="Path 83" d="M5.548-4.628a5.409,5.409,0,0,0-.824-.08,1.656,1.656,0,0,0-1.706.9v5.74H.7v-8.77H2.88l.059,1.056A2.151,2.151,0,0,1,4.861-7a2.155,2.155,0,0,1,.726.12Zm0,0" transform="translate(-0.703 7)"/>
            </g>
          </g>
        </g>
        <g id="Group_344" data-name="Group 344" transform="translate(263.475 135.053)">
          <g id="Group_343" data-name="Group 343" transform="translate(0 0)">
            <g id="Group_342" data-name="Group 342">
              <path id="Path_84" data-name="Path 84" d="M9.7-7.374H6.154v9.34H3.761v-9.34H.25V-9.25H9.7Zm0,0" transform="translate(-0.25 9.25)"/>
            </g>
          </g>
        </g>
        <g id="Group_347" data-name="Group 347" transform="translate(273.844 137.34)">
          <g id="Group_346" data-name="Group 346" transform="translate(0 0)">
            <g id="Group_345" data-name="Group 345">
              <path id="Path_85" data-name="Path 85" d="M4.729,2.089A4.189,4.189,0,0,1,1.65.913a4.245,4.245,0,0,1-1.2-3.149v-.239a5.416,5.416,0,0,1,.49-2.352A3.742,3.742,0,0,1,2.375-6.422,3.878,3.878,0,0,1,4.474-7,3.521,3.521,0,0,1,7.259-5.864a4.658,4.658,0,0,1,1.02,3.209V-1.7H2.787A2.226,2.226,0,0,0,3.454-.323,2.022,2.022,0,0,0,4.886.2,2.469,2.469,0,0,0,6.965-.781L8.1.514A3.584,3.584,0,0,1,6.691,1.67,4.53,4.53,0,0,1,4.729,2.089Zm-.255-7.2a1.427,1.427,0,0,0-1.118.478,2.46,2.46,0,0,0-.53,1.335h3.2v-.179a1.706,1.706,0,0,0-.432-1.2A1.443,1.443,0,0,0,4.474-5.106Zm0,0" transform="translate(-0.453 7)"/>
            </g>
          </g>
        </g>
        <g id="Group_350" data-name="Group 350" transform="translate(282.641 137.34)">
          <g id="Group_349" data-name="Group 349" transform="translate(0 0)">
            <g id="Group_348" data-name="Group 348">
              <path id="Path_86" data-name="Path 86" d="M4.364.2a1.5,1.5,0,0,0,1.02-.339A1.27,1.27,0,0,0,5.816-1.1H7.974A2.967,2.967,0,0,1,7.5.534,3.23,3.23,0,0,1,6.208,1.69a4.116,4.116,0,0,1-1.8.4A3.732,3.732,0,0,1,1.481.893,4.787,4.787,0,0,1,.422-2.4v-.159A4.694,4.694,0,0,1,1.481-5.784,3.658,3.658,0,0,1,4.384-7a3.562,3.562,0,0,1,2.589.937,3.365,3.365,0,0,1,1,2.491H5.816a1.577,1.577,0,0,0-.432-1.1,1.343,1.343,0,0,0-1.04-.438,1.378,1.378,0,0,0-1.216.6,3.5,3.5,0,0,0-.412,1.933v.239A3.532,3.532,0,0,0,3.129-.383,1.41,1.41,0,0,0,4.364.2Zm0,0" transform="translate(-0.422 7)"/>
            </g>
          </g>
        </g>
        <g id="Group_353" data-name="Group 353" transform="translate(291.462 134.416)">
          <g id="Group_352" data-name="Group 352" transform="translate(0 0)">
            <g id="Group_351" data-name="Group 351">
              <path id="Path_87" data-name="Path 87" d="M2.971-5.343A2.873,2.873,0,0,1,5.266-6.407q2.8,0,2.844,3.153V2.1H5.815V-3.177a1.484,1.484,0,0,0-.333-1.064,1.391,1.391,0,0,0-1.059-.342,1.565,1.565,0,0,0-1.451.76V2.1H.656V-9.75H2.971Zm0,0" transform="translate(-0.656 9.75)"/>
            </g>
          </g>
        </g>
        <g id="Group_356" data-name="Group 356" transform="translate(300.63 137.34)">
          <g id="Group_355" data-name="Group 355" transform="translate(0 0)">
            <g id="Group_354" data-name="Group 354">
              <path id="Path_88" data-name="Path 88" d="M2.83-6.841l.078,1.017A2.979,2.979,0,0,1,5.379-7a2.49,2.49,0,0,1,2.04.817,3.939,3.939,0,0,1,.687,2.452V1.929H5.811v-5.6a1.458,1.458,0,0,0-.333-1.076,1.406,1.406,0,0,0-1.059-.339,1.577,1.577,0,0,0-1.451.837V1.929H.672v-8.77Zm0,0" transform="translate(-0.672 7)"/>
            </g>
          </g>
        </g>
        <g id="Group_359" data-name="Group 359" transform="translate(309.799 134.615)">
          <g id="Group_358" data-name="Group 358" transform="translate(0 0)">
            <g id="Group_357" data-name="Group 357">
              <path id="Path_89" data-name="Path 89" d="M3.139,2.061H.825V-6.291H3.139ZM.688-8.436a1.084,1.084,0,0,1,.353-.835,1.349,1.349,0,0,1,.942-.323,1.349,1.349,0,0,1,.942.323,1.084,1.084,0,0,1,.353.835,1.113,1.113,0,0,1-.353.835,1.327,1.327,0,0,1-.942.323A1.327,1.327,0,0,1,1.041-7.6,1.113,1.113,0,0,1,.688-8.436Zm0,0" transform="translate(-0.688 9.594)"/>
            </g>
          </g>
        </g>
        <g id="Group_362" data-name="Group 362" transform="translate(313.807 137.34)">
          <g id="Group_361" data-name="Group 361" transform="translate(0 0)">
            <g id="Group_360" data-name="Group 360">
              <path id="Path_90" data-name="Path 90" d="M4.364.2a1.5,1.5,0,0,0,1.02-.339A1.27,1.27,0,0,0,5.816-1.1H7.974A2.967,2.967,0,0,1,7.5.534,3.23,3.23,0,0,1,6.208,1.69a4.116,4.116,0,0,1-1.8.4A3.732,3.732,0,0,1,1.481.893,4.787,4.787,0,0,1,.422-2.4v-.159A4.694,4.694,0,0,1,1.481-5.784,3.658,3.658,0,0,1,4.384-7a3.562,3.562,0,0,1,2.589.937,3.365,3.365,0,0,1,1,2.491H5.816a1.577,1.577,0,0,0-.432-1.1,1.343,1.343,0,0,0-1.04-.438,1.378,1.378,0,0,0-1.216.6,3.5,3.5,0,0,0-.412,1.933v.239A3.532,3.532,0,0,0,3.129-.383,1.41,1.41,0,0,0,4.364.2Zm0,0" transform="translate(-0.422 7)"/>
            </g>
          </g>
        </g>
        <g id="Group_365" data-name="Group 365" transform="translate(322.352 137.34)">
          <g id="Group_364" data-name="Group 364" transform="translate(0 0)">
            <g id="Group_363" data-name="Group 363">
              <path id="Path_91" data-name="Path 91" d="M5.773,1.929a2.583,2.583,0,0,1-.235-.777,2.789,2.789,0,0,1-2.177.937,3.057,3.057,0,0,1-2.1-.737A2.463,2.463,0,0,1,.437-.542a2.468,2.468,0,0,1,1-2.113A4.976,4.976,0,0,1,4.38-3.432H5.439v-.5a1.418,1.418,0,0,0-.314-.957,1.156,1.156,0,0,0-.961-.379,1.293,1.293,0,0,0-.9.3.931.931,0,0,0-.333.757H.614a2.309,2.309,0,0,1,.471-1.4A3.017,3.017,0,0,1,2.4-6.621,4.578,4.578,0,0,1,4.282-7a3.7,3.7,0,0,1,2.53.817,2.88,2.88,0,0,1,.942,2.292V-.1A4.164,4.164,0,0,0,8.087,1.79v.14ZM3.87.3A2.017,2.017,0,0,0,4.812.076a1.516,1.516,0,0,0,.628-.618V-2.057H4.576c-1.152,0-1.765.409-1.844,1.216V-.7a.94.94,0,0,0,.294.718A1.2,1.2,0,0,0,3.87.3Zm0,0" transform="translate(-0.437 7)"/>
            </g>
          </g>
        </g>
        <g id="Group_368" data-name="Group 368" transform="translate(331.561 134.416)">
          <g id="Group_367" data-name="Group 367" transform="translate(0 0)">
            <g id="Group_366" data-name="Group 366">
              <path id="Path_92" data-name="Path 92" d="M3.111,2.1H.8V-9.75H3.111Zm0,0" transform="translate(-0.797 9.75)"/>
            </g>
          </g>
        </g>
        <g id="Group_371" data-name="Group 371" transform="translate(340.015 135.053)">
          <g id="Group_370" data-name="Group 370" transform="translate(0 0)">
            <g id="Group_369" data-name="Group 369">
              <path id="Path_93" data-name="Path 93" d="M7.811-2.884H3.221V.109H8.6V1.966H.828V-9.25H8.6v1.876H3.221V-4.7h4.59Zm0,0" transform="translate(-0.828 9.25)"/>
            </g>
          </g>
        </g>
        <g id="Group_374" data-name="Group 374" transform="translate(348.7 134.416)">
          <g id="Group_373" data-name="Group 373" transform="translate(0 0)">
            <g id="Group_372" data-name="Group 372">
              <path id="Path_94" data-name="Path 94" d="M.422-2.128a4.943,4.943,0,0,1,.9-3.117A2.961,2.961,0,0,1,3.8-6.4a2.686,2.686,0,0,1,2.079.912V-9.75H8.189V2.111H6.11l-.118-.893A2.745,2.745,0,0,1,3.776,2.263,2.944,2.944,0,0,1,1.344,1.1,5.039,5.039,0,0,1,.422-2.128Zm2.295.152A3.285,3.285,0,0,0,3.129-.17,1.4,1.4,0,0,0,4.364.457a1.544,1.544,0,0,0,1.51-.874V-3.705A1.533,1.533,0,0,0,4.384-4.58Q2.714-4.58,2.717-1.976Zm0,0" transform="translate(-0.422 9.75)"/>
            </g>
          </g>
        </g>
        <g id="Group_377" data-name="Group 377" transform="translate(358.303 137.499)">
          <g id="Group_376" data-name="Group 376" transform="translate(0 0)">
            <g id="Group_375" data-name="Group 375">
              <path id="Path_95" data-name="Path 95" d="M5.874,1A2.838,2.838,0,0,1,3.52,2.054a2.7,2.7,0,0,1-2.118-.8A3.535,3.535,0,0,1,.656-1.135v-5.74H2.971v5.661c0,.917.4,1.375,1.216,1.375A1.647,1.647,0,0,0,5.8-.656V-6.875H8.11v8.77H5.952Zm0,0" transform="translate(-0.656 6.875)"/>
            </g>
          </g>
        </g>
        <g id="Group_380" data-name="Group 380" transform="translate(367.138 137.34)">
          <g id="Group_379" data-name="Group 379" transform="translate(0 0)">
            <g id="Group_378" data-name="Group 378">
              <path id="Path_96" data-name="Path 96" d="M4.364.2a1.5,1.5,0,0,0,1.02-.339A1.27,1.27,0,0,0,5.816-1.1H7.974A2.967,2.967,0,0,1,7.5.534,3.23,3.23,0,0,1,6.208,1.69a4.116,4.116,0,0,1-1.8.4A3.732,3.732,0,0,1,1.481.893,4.787,4.787,0,0,1,.422-2.4v-.159A4.694,4.694,0,0,1,1.481-5.784,3.658,3.658,0,0,1,4.384-7a3.562,3.562,0,0,1,2.589.937,3.365,3.365,0,0,1,1,2.491H5.816a1.577,1.577,0,0,0-.432-1.1,1.343,1.343,0,0,0-1.04-.438,1.378,1.378,0,0,0-1.216.6,3.5,3.5,0,0,0-.412,1.933v.239A3.532,3.532,0,0,0,3.129-.383,1.41,1.41,0,0,0,4.364.2Zm0,0" transform="translate(-0.422 7)"/>
            </g>
          </g>
        </g>
        <g id="Group_383" data-name="Group 383" transform="translate(375.665 137.34)">
          <g id="Group_382" data-name="Group 382" transform="translate(0 0)">
            <g id="Group_381" data-name="Group 381">
              <path id="Path_97" data-name="Path 97" d="M5.773,1.929a2.583,2.583,0,0,1-.235-.777,2.789,2.789,0,0,1-2.177.937,3.057,3.057,0,0,1-2.1-.737A2.463,2.463,0,0,1,.437-.542a2.468,2.468,0,0,1,1-2.113A4.976,4.976,0,0,1,4.38-3.432H5.439v-.5a1.418,1.418,0,0,0-.314-.957,1.156,1.156,0,0,0-.961-.379,1.293,1.293,0,0,0-.9.3.931.931,0,0,0-.333.757H.614a2.309,2.309,0,0,1,.471-1.4A3.017,3.017,0,0,1,2.4-6.621,4.578,4.578,0,0,1,4.282-7a3.7,3.7,0,0,1,2.53.817,2.88,2.88,0,0,1,.942,2.292V-.1A4.164,4.164,0,0,0,8.087,1.79v.14ZM3.87.3A2.017,2.017,0,0,0,4.812.076a1.516,1.516,0,0,0,.628-.618V-2.057H4.576c-1.152,0-1.765.409-1.844,1.216V-.7a.94.94,0,0,0,.294.718A1.2,1.2,0,0,0,3.87.3Zm0,0" transform="translate(-0.437 7)"/>
            </g>
          </g>
        </g>
        <g id="Group_386" data-name="Group 386" transform="translate(383.941 135.93)">
          <g id="Group_385" data-name="Group 385" transform="translate(0 0)">
            <g id="Group_384" data-name="Group 384">
              <path id="Path_98" data-name="Path 98" d="M3.632-8.562v2.039H5.1v1.643H3.632V-.745a1.008,1.008,0,0,0,.177.661A.967.967,0,0,0,4.515.1,4.782,4.782,0,0,0,5.182.066v1.68a5.239,5.239,0,0,1-1.393.189A2.167,2.167,0,0,1,1.318-.424V-4.881H.062V-6.523H1.318V-8.562Zm0,0" transform="translate(-0.062 8.563)"/>
            </g>
          </g>
        </g>
        <g id="Group_389" data-name="Group 389" transform="translate(390.238 134.615)">
          <g id="Group_388" data-name="Group 388" transform="translate(0 0)">
            <g id="Group_387" data-name="Group 387">
              <path id="Path_99" data-name="Path 99" d="M3.139,2.061H.825V-6.291H3.139ZM.688-8.436a1.084,1.084,0,0,1,.353-.835,1.349,1.349,0,0,1,.942-.323,1.349,1.349,0,0,1,.942.323,1.084,1.084,0,0,1,.353.835,1.113,1.113,0,0,1-.353.835,1.327,1.327,0,0,1-.942.323A1.327,1.327,0,0,1,1.041-7.6,1.113,1.113,0,0,1,.688-8.436Zm0,0" transform="translate(-0.688 9.594)"/>
            </g>
          </g>
        </g>
        <g id="Group_392" data-name="Group 392" transform="translate(394.23 137.34)">
          <g id="Group_391" data-name="Group 391" transform="translate(0 0)">
            <g id="Group_390" data-name="Group 390">
              <path id="Path_100" data-name="Path 100" d="M.422-2.535a5.238,5.238,0,0,1,.49-2.312A3.61,3.61,0,0,1,2.325-6.442,4.174,4.174,0,0,1,4.482-7,3.873,3.873,0,0,1,7.326-5.9a4.3,4.3,0,0,1,1.236,2.95l.02.6A4.572,4.572,0,0,1,7.464.873,3.8,3.8,0,0,1,4.5,2.089,3.845,3.845,0,0,1,1.52.873a4.731,4.731,0,0,1-1.1-3.309Zm2.295.179A3.3,3.3,0,0,0,3.168-.462,1.539,1.539,0,0,0,4.5.2,1.536,1.536,0,0,0,5.816-.442a3.65,3.65,0,0,0,.471-2.093,3.3,3.3,0,0,0-.471-1.894,1.538,1.538,0,0,0-1.334-.678,1.516,1.516,0,0,0-1.314.678A3.707,3.707,0,0,0,2.717-2.356Zm0,0" transform="translate(-0.422 7)"/>
            </g>
          </g>
        </g>
        <g id="Group_395" data-name="Group 395" transform="translate(403.769 137.34)">
          <g id="Group_394" data-name="Group 394" transform="translate(0 0)">
            <g id="Group_393" data-name="Group 393">
              <path id="Path_101" data-name="Path 101" d="M2.83-6.841l.078,1.017A2.979,2.979,0,0,1,5.379-7a2.49,2.49,0,0,1,2.04.817,3.939,3.939,0,0,1,.687,2.452V1.929H5.811v-5.6a1.458,1.458,0,0,0-.333-1.076,1.406,1.406,0,0,0-1.059-.339,1.577,1.577,0,0,0-1.451.837V1.929H.672v-8.77Zm0,0" transform="translate(-0.672 7)"/>
            </g>
          </g>
        </g>
      </g>
    </g>
    <g id="AICTE" transform="translate(865.3 1091.566)">
      <path id="Path_228" data-name="Path 228" d="M20.634-414.939c-.613.14-3.218.549-3.39.549a4.675,4.675,0,0,1-.657-1.647c-.28-.893-.549-1.679-.592-1.722a35.407,35.407,0,0,0-4.983,2.4c.011.065.387.721.84,1.475l.807,1.367-.355.3c-.194.161-.538.431-.764.592l-.42.291-1.227-1.238-1.227-1.238-1.851,1.862c-1.022,1.033-1.873,1.916-1.894,1.959a7.719,7.719,0,0,0,1.205,1.152,11.886,11.886,0,0,1,1.249,1.119c0,.032-.291.56-.646,1.162l-.646,1.087-1.205-.538a9.671,9.671,0,0,0-2.066-.84c-.022.022-.463,1.033-.979,2.249s-.958,2.271-.99,2.336,0,.14.065.14.71.248,1.442.549,1.41.592,1.539.635c.215.086.215.1.043,1.205l-.172,1.109-1.722-.032c-.936-.022-1.787-.065-1.884-.086-.183-.054-.183-.108-.377,3.928L-.3-393.37l1.991-.086,1.991-.075.3,1.582a7.113,7.113,0,0,1,.2,1.658c-.054.043-.764.366-1.582.71a11.871,11.871,0,0,0-1.539.721,21.721,21.721,0,0,0,1.044,2.4l1.1,2.314,1.657-.872a17.261,17.261,0,0,1,1.7-.84c.022.022.28.377.57.786l.538.732-1.4,1.195-1.4,1.184.312.291c.366.355,3.229,2.981,3.53,3.25.215.183.248.161,1.324-1.044l1.109-1.216.99.753a3.892,3.892,0,0,1,.958.883c-.022.065-.323.7-.657,1.421l-.624,1.292,2.486.883c1.367.484,2.551.893,2.637.9s.3-.431.646-1.388a14.831,14.831,0,0,1,.57-1.485,10.067,10.067,0,0,1,2.389.5,6.486,6.486,0,0,1-.032,1.6,14.97,14.97,0,0,0-.1,1.561c.022.022,1.249.075,2.734.118l2.712.075-.043-.474c-.086-.818-.237-2.949-.215-2.971.043-.054,3.337-.57,3.369-.527.022.022.269.732.56,1.582.366,1.087.57,1.539.667,1.518s1.205-.517,2.5-1.109,2.4-1.065,2.454-1.065c.161,0,.151-.022-.85-1.83L33.442-380l.829-.452a6.039,6.039,0,0,1,.872-.452,16.053,16.053,0,0,1,1.076,1.292c.56.721,1.066,1.324,1.119,1.356a18.612,18.612,0,0,0,2-1.851l1.905-1.905L39.964-383.2l-1.27-1.184.215-.344c.118-.183.42-.657.667-1.066a4.65,4.65,0,0,1,.517-.721c.032,0,.786.3,1.668.678l1.6.678.958-2.368c.517-1.313.969-2.432,1-2.5.032-.086-.549-.334-1.614-.689-1.55-.517-1.679-.57-1.625-.786.022-.129.1-.624.161-1.087a5.111,5.111,0,0,1,.161-.9,12.743,12.743,0,0,1,1.69.065c.9.075,1.733.129,1.84.129.172,0,.183-.2.183-2.691v-2.691H44.237a9.794,9.794,0,0,1-1.884-.086c0-.043-.1-.657-.215-1.367a8.04,8.04,0,0,1-.151-1.335c.022-.032.764-.334,1.636-.667,1.044-.409,1.571-.667,1.55-.764-.075-.3-2.228-4.822-2.3-4.822-.043,0-.764.312-1.593.7s-1.55.7-1.593.7a2.624,2.624,0,0,1-.474-.646l-.4-.635,1.3-1.162,1.3-1.162-1.765-1.69c-.969-.936-1.84-1.754-1.948-1.808-.14-.086-.387.129-1.335,1.173l-1.152,1.281-1.205-.883-1.216-.872.829-1.614c.441-.893.829-1.647.85-1.7s-.022-.075-.086-.075-1.27-.409-2.669-.915-2.54-.9-2.551-.893-.28.8-.592,1.733c-.517,1.571-.581,1.7-.8,1.647-.118-.032-.657-.118-1.184-.194a2.417,2.417,0,0,1-1-.269,12.638,12.638,0,0,1,.118-1.776c.1-.9.172-1.711.172-1.787H20.363Z" transform="translate(0 0)" fill="url(#radial-gradient)"/>
      <path id="Path_229" data-name="Path 229" d="M218-372.7c0,.484.011.5.334.5h.334l-.065.936a10.062,10.062,0,0,1-.129,1.119c-.043.14.043.194.355.226a1.381,1.381,0,0,0,.452.022,10.851,10.851,0,0,0,.151-1.13l.108-1.087.355.043c.312.032.366.011.366-.183a2.08,2.08,0,0,1,.065-.441c.054-.215.011-.237-.732-.3-.431-.043-.969-.1-1.184-.129L218-373.2Zm1.593-.194c.527.065.56.086.56.377s-.032.312-.366.312h-.366l-.075.883c-.1,1.173-.129,1.27-.441,1.27-.291,0-.3-.1-.172-1.475l.086-.775-.334-.032c-.258-.021-.334-.086-.355-.334-.032-.28-.011-.291.431-.291C218.818-372.963,219.281-372.931,219.593-372.9Z" transform="translate(-194.805 -40.566)"/>
      <path id="Path_230" data-name="Path 230" d="M158.942-364.709c-.3.054-.5.4-.538.936-.043.592.032.893.258.958.118.022.258.291.387.71.108.355.2.657.215.657a1.925,1.925,0,0,0,.7-.312,5.7,5.7,0,0,0-.215-.71c-.258-.743-.258-.7-.054-.7a.166.166,0,0,1,.161.161,1.325,1.325,0,0,0,.635.958.98.98,0,0,0,1.367-.743c.118-.656-.452-1.55-1.012-1.561a1.082,1.082,0,0,0-.947.592c-.075.3-.258.366-.258.1a.272.272,0,0,0-.215-.226c-.248-.065-.291-.248-.054-.248.183,0,.194-.043.1-.409C159.405-364.784,159.362-364.795,158.942-364.709Zm.4.215a.342.342,0,0,1-.118.312c-.183.151-.075.5.129.409s.323.366.118.474c-.129.075-.108.2.129.764.28.71.248.926-.129.85-.129-.022-.258-.248-.409-.71-.118-.366-.269-.667-.344-.667-.161,0-.3-.334-.183-.42a.9.9,0,0,0,.086-.5c0-.344.054-.452.269-.56C159.244-364.72,159.3-364.709,159.341-364.494Zm1.948.474a1.229,1.229,0,0,1,.151,1.765,1.148,1.148,0,0,1-1,.075c-.474-.323-.657-1.442-.28-1.765A.776.776,0,0,1,161.289-364.02Z" transform="translate(-141.613 -48.099)"/>
      <path id="Path_231" data-name="Path 231" d="M178.032-354.939c-.161.161-.065.764.151.958s.226.194.377-.011c.194-.258.194-.312-.011-.7C178.387-355,178.182-355.1,178.032-354.939Zm.334.161a.753.753,0,0,1,.14.721c-.161.258-.441-.065-.441-.484C178.064-354.917,178.172-355,178.365-354.777Z" transform="translate(-159.066 -56.793)"/>
      <path id="Path_232" data-name="Path 232" d="M191.2-364.452c-.032.054.022.1.108.1.269,0,.215.506-.054.57-.226.065-.237.108-.161.818.065.753.065.764-.194.764-.28,0-.334-.14-.452-1.345-.065-.667-.065-.7.161-.7.14,0,.226.065.226.183,0,.14.032.151.118.065.237-.237.032-.42-.387-.377-.355.043-.387.075-.334.334.032.151.118.678.183,1.173.1.71.161.883.28.84a1.31,1.31,0,0,1,.377-.065c.2,0,.2-.043.14-.807s-.065-.807.151-.807c.151,0,.226-.065.226-.2a1.233,1.233,0,0,1,.065-.366C191.714-364.452,191.305-364.614,191.2-364.452Z" transform="translate(-170.004 -48.313)"/>
      <path id="Path_233" data-name="Path 233" d="M236.517-361.692A1.455,1.455,0,0,0,236-360.54a1.225,1.225,0,0,0,.829,1,1.222,1.222,0,0,0,1.044-.409c.075-.194-.56-.42-.743-.269-.1.075-.172.065-.269-.054-.118-.14-.1-.161.118-.161a3.129,3.129,0,0,1,.667.118c.323.086.4.161.4.377a.9.9,0,0,0,.538.85c.409.215.8.2.979-.022.14-.161.129-.161-.086-.022a1.045,1.045,0,0,1-1.259-.463,1.61,1.61,0,0,1,.366-1.356c.452-.484,1.507-.129,1.507.506,0,.269-.291.194-.56-.14-.151-.183-.226-.2-.377-.108a1.011,1.011,0,0,0-.409.915c.065.183.129.215.431.161a1.151,1.151,0,0,1,.506-.011c.161.065.194.549.043.786-.065.108.549.527.635.431.011-.022.161-.291.323-.6s.366-.56.452-.56c.194,0,.108.3-.248.915l-.258.441.312.183a2.767,2.767,0,0,0,.355.183,7.292,7.292,0,0,0,.517-.915l.474-.915-.226-.291a1.07,1.07,0,0,0-.441-.355l-.237-.054.215-.344.2-.344-.323-.237c-.183-.129-.344-.215-.355-.194s-.291.538-.592,1.141a7.343,7.343,0,0,1-.614,1.109c-.032,0-.043-.075,0-.161.086-.237-.463-.5-.71-.344-.14.086-.226.086-.3.011-.172-.172-.022-.667.237-.807.172-.1.215-.075.269.108.032.129.108.226.183.226a2.4,2.4,0,0,1,.366.065c.2.065.237.032.237-.248a1.115,1.115,0,0,0-.807-.926,1.212,1.212,0,0,0-1.152.678l-.183.377.022-.452a1.074,1.074,0,0,0-.538-1.1A.861.861,0,0,0,236.517-361.692Zm1.141.086c.226.183.28.312.28.71v.484l-.5-.075a3.425,3.425,0,0,1-.646-.129c-.2-.075-.194.334.011.506a.21.21,0,0,0,.3.022.428.428,0,0,1,.387-.011c.387.151.1.42-.474.42-.667,0-1-.463-.85-1.227A.921.921,0,0,1,237.657-361.606Zm3.832.42c.129.086.118.172-.086.6l-.248.506.237-.065a.458.458,0,0,1,.635.441,3.759,3.759,0,0,1-.807,1.636.558.558,0,0,1-.248-.1c-.118-.075-.1-.194.129-.635.3-.592.344-.829.172-.936s-.42.14-.71.721c-.237.474-.28.506-.506.4l-.258-.118.431-.818a6.774,6.774,0,0,1,1.022-1.744A.707.707,0,0,1,241.489-361.186Z" transform="translate(-210.867 -50.621)"/>
      <path id="Path_234" data-name="Path 234" d="M243.606-356.6c-.129.248-.054.344.28.344.215,0,.258-.054.226-.237C244.069-356.8,243.746-356.869,243.606-356.6Zm.42.075a.165.165,0,0,1-.161.161.166.166,0,0,1-.161-.161.166.166,0,0,1,.161-.161A.166.166,0,0,1,244.026-356.525Z" transform="translate(-217.601 -55.228)"/>
      <path id="Path_235" data-name="Path 235" d="M135.064-353.839a1.105,1.105,0,0,1-.3.183,5.847,5.847,0,0,0,.613,1.324c.387.71.71,1.335.732,1.388s.194.011.377-.086l.355-.183-.732-1.388a11.968,11.968,0,0,0-.786-1.4A1.21,1.21,0,0,0,135.064-353.839Zm.979,1.335.667,1.27-.258.118c-.248.118-.28.075-.9-1.119a13.274,13.274,0,0,1-.657-1.335c0-.1.183-.194.377-.2A5.92,5.92,0,0,1,136.043-352.5Z" transform="translate(-120.522 -57.699)"/>
      <path id="Path_236" data-name="Path 236" d="M125.391-347.654c-.258.194-.258.215-.086.484.129.194.237.248.377.2.151-.065.161-.043.054.086s-.032.323.463,1.044a3.077,3.077,0,0,0,.732.883.564.564,0,0,0,.312-.194c.172-.183.14-.258-.431-1.13-.484-.743-.635-.9-.753-.807-.075.065-.172.1-.194.065s.011-.118.1-.183c.151-.118.14-.172-.011-.4C125.757-347.913,125.725-347.913,125.391-347.654Zm.5.172a.292.292,0,0,1-.14.312c-.172.129-.215.129-.323-.032-.1-.118-.1-.215-.022-.3A.274.274,0,0,1,125.886-347.482Zm.883,1.313c.5.764.527.85.366.969a.685.685,0,0,1-.258.14,4.715,4.715,0,0,1-.624-.861c-.484-.764-.517-.861-.355-.958a.786.786,0,0,1,.248-.118A5.408,5.408,0,0,1,126.769-346.169Z" transform="translate(-111.979 -63.195)"/>
      <path id="Path_237" data-name="Path 237" d="M287.389-340.074l-.689.926.291.269a.966.966,0,0,0,.323.237c.011-.022.14-.215.291-.42.388-.57.56-.753.71-.753.215,0,.172.108-.3.753l-.42.592.226.183a.844.844,0,0,0,.323.194,5.036,5.036,0,0,0,1.173-1.69c0-.237-.258-.57-.441-.57s-.248-.054-.527-.355l-.269-.291Zm.926-.592a.282.282,0,0,1,.065.269c-.043.108.032.151.258.151.366,0,.57.172.57.463a5.593,5.593,0,0,1-1.033,1.582.885.885,0,0,1-.248-.129c-.2-.118-.194-.161.226-.743.237-.344.4-.667.355-.732-.14-.237-.387-.108-.775.409a2.765,2.765,0,0,1-.474.538c-.032.011-.14-.054-.258-.129-.183-.14-.151-.2.43-.969a4.61,4.61,0,0,1,.689-.829A.389.389,0,0,1,288.314-340.666Z" transform="translate(-256.11 -69.3)"/>
      <path id="Path_238" data-name="Path 238" d="M115.764-333.53a1.612,1.612,0,0,0-.764.926,1.825,1.825,0,0,0,.215.614c.248.452.291.344.043-.129a.818.818,0,0,1,.151-1.022.911.911,0,0,1,.947-.237c.28.1.28.108.1.312a.418.418,0,0,1-.377.161c-.5-.151-.484.614.011.958.291.2.678.043.6-.248a.327.327,0,0,1,.161-.323c.248-.161.258-.151.355.215.108.431-.387.958-.9.958a.919.919,0,0,1-.527-.129c-.065-.065-.161-.1-.194-.054s.1.151.312.237c.474.194.786.1,1.184-.377.323-.377.355-.613.151-.9-.118-.161-.183-.172-.431-.054q-.291.129-.258.355c.032.377-.42.366-.613-.011-.172-.344-.086-.614.161-.517.086.032.269-.054.4-.194.194-.2.215-.28.108-.377A1.1,1.1,0,0,0,115.764-333.53Z" transform="translate(-102.89 -75.941)"/>
      <path id="Path_239" data-name="Path 239" d="M304.027-333.884a4.826,4.826,0,0,1-.646.786c-.355.388-.8.872-.969,1.087l-.312.388.248.237.248.237.861-.926.861-.915-.258-.237c-.226-.2-.237-.258-.1-.4s.194-.129.334-.011a.366.366,0,0,1,.118.344c-.032.172-.021.183.108.075s.108-.172-.1-.431C304.188-333.937,304.027-334.034,304.027-333.884Zm.108.893a11.494,11.494,0,0,1-.786.9c-.753.829-.775.84-.969.635s-.161-.237.581-1.033c.678-.71.8-.8.969-.689C304.048-333.1,304.134-333.023,304.134-332.99Z" transform="translate(-269.853 -75.588)"/>
      <path id="Path_240" data-name="Path 240" d="M98.818-320.874a.582.582,0,0,0-.172.377c0,.118-.043.194-.1.161s-.194.054-.312.183l-.237.248.786.764.775.775.3-.269c.161-.14.258-.258.2-.258a.666.666,0,0,0-.291.215c-.2.226-.2.215-.936-.506-.678-.678-.721-.732-.549-.915.129-.151.2-.161.323-.075s.14.065.14-.194c0-.355.172-.57.463-.57a3.224,3.224,0,0,1,.947.721c.872.829,1,.861.183.032C99.431-321.1,99.152-321.219,98.818-320.874Z" transform="translate(-87.72 -87.101)"/>
      <path id="Path_241" data-name="Path 241" d="M311.688-317.751a1.209,1.209,0,0,0-.56,1.5c.075.118.086.065.043-.183a1.149,1.149,0,0,1,.549-1.216.886.886,0,0,1,1.281.118c.291.344.344.581.172.85-.129.2-.484.011-.484-.269a.434.434,0,0,0-.183-.312c-.14-.086-.248-.065-.484.108-.4.3-.409.732-.032.775.269.043.56.334.474.474s-.775.086-.947-.086c-.1-.086-.172-.129-.172-.075,0,.2.28.355.667.355s.409.022.3.2a.618.618,0,0,0,.215.883c.172.129.291.269.269.3s.043.172.14.312l.183.237.678-.452a2.325,2.325,0,0,0,.624-.484,4.109,4.109,0,0,0-1.13.7c-.118.108-.172.108-.28-.054-.1-.129-.108-.237-.043-.312s.022-.151-.172-.194a.672.672,0,0,1-.452-.753.969.969,0,0,1,.334-.334c.291-.194.538-.118,1,.291.129.118.28.183.344.14.151-.086.151-.377.011-.377a.771.771,0,0,1-.323-.215.771.771,0,0,1-.215-.323c0-.226.506-.1.775.183.355.387.463.743.291.979-.129.172-.129.172.054,0,.269-.237.161-.635-.28-1.055-.334-.323-.56-.387-.883-.258-.129.054-.14.108-.054.28.151.269.065.355-.215.194a.412.412,0,0,0-.431,0c-.28.151-.387.14-.248-.032s-.151-.581-.452-.635-.323-.258-.065-.517.6-.237.57.043a.845.845,0,0,0,.538.6c.129,0,.312-.56.248-.807a1.774,1.774,0,0,0-.334-.517A.98.98,0,0,0,311.688-317.751Zm2.325,2.336c.065.2-.14.151-.355-.086-.194-.215-.194-.226.054-.129A.585.585,0,0,1,314.013-315.416Z" transform="translate(-277.815 -89.847)"/>
      <path id="Path_242" data-name="Path 242" d="M107.51-313.849c-.161.194-.065.377.463.818l.441.377-.484-.538c-.42-.463-.452-.538-.269-.57.129-.032.355.118.657.441l.463.484.194-.226c.172-.215.172-.215,0-.086s-.248.086-.721-.355a6.085,6.085,0,0,0-.57-.5C107.65-314,107.575-313.935,107.51-313.849Z" transform="translate(-96.143 -93.394)"/>
      <path id="Path_243" data-name="Path 243" d="M86.515-306.7l-.183.3.56.409.56.4-.431-.377a2.013,2.013,0,0,0-.517-.387c-.043,0,0-.118.1-.269l.172-.258.84.613c.71.517.829.646.732.807a.231.231,0,0,1-.291.129c-.161-.043-.183-.011-.14.215a.614.614,0,0,1-.086.431c-.237.28-.646.183-1.345-.334-.667-.5-.678-.506-.517-.753l.161-.247.538.431c.581.452.872.506.926.151.043-.215.043-.215-.118,0s-.172.194-.775-.258c-.646-.484-.635-.484-.915.011-.086.151.022.28.613.721a2.534,2.534,0,0,0,1.012.549c.269,0,.635-.291.635-.506a.417.417,0,0,1,.172-.248c.452-.388.4-.484-.538-1.173-.506-.366-.926-.656-.947-.656A1.236,1.236,0,0,0,86.515-306.7Z" transform="translate(-76.795 -99.641)"/>
      <path id="Path_244" data-name="Path 244" d="M328.181-292.75c-.086.215.043.377.312.377.441,0,.549-.161.248-.355C328.407-292.955,328.256-292.955,328.181-292.75Zm.409.247c-.291.043-.4-.022-.291-.183.043-.086.14-.075.3.011l.237.14Z" transform="translate(-293.103 -112.222)"/>
      <path id="Path_245" data-name="Path 245" d="M332.378-290.957,331-290.2l.161.312a1.171,1.171,0,0,0,.215.312c.054,0,2.379-1.227,2.615-1.378.118-.075.108-.161-.054-.42l-.194-.323Zm1.528-.194a14.141,14.141,0,0,1-2.529,1.442c-.312-.4-.28-.441,1-1.13.926-.484,1.292-.635,1.388-.549A.4.4,0,0,1,333.906-291.151Z" transform="translate(-295.642 -113.294)"/>
      <path id="Path_246" data-name="Path 246" d="M77.3-286.648a.866.866,0,0,0,.043,1.367,1.116,1.116,0,0,0,.893.441c.506.054.56.032.829-.291.484-.57.344-1.152-.4-1.6A1.016,1.016,0,0,0,77.3-286.648Zm1.3,0c.667.344.84,1.012.377,1.464a1,1,0,0,1-1.238.108.919.919,0,0,1-.377-1.507A.944.944,0,0,1,78.6-286.648Z" transform="translate(-68.967 -117.528)"/>
      <path id="Path_247" data-name="Path 247" d="M83.04-280.864c-.172.161-.054.474.248.624.409.2.635.2.721-.022C84.138-280.584,83.288-281.122,83.04-280.864Zm.657.2c.269.183.323.474.075.474-.3,0-.7-.258-.7-.452C83.072-280.875,83.363-280.9,83.7-280.659Z" transform="translate(-74.299 -122.903)"/>
      <path id="Path_248" data-name="Path 248" d="M135-280.754c-.42,1.292-.8,2.411-.829,2.476-.032.108.151.14.7.14h.743l.108-.409.1-.4h1.4l.1.4.108.409h2.755v-4.951h-1.4l-.011,2.174-.011,2.185-.721-2.153-.732-2.153-.753-.032-.764-.032Zm1.711-.065c.172.743.172.743-.237.743h-.366l.172-.646a2.189,2.189,0,0,1,.237-.646A1.233,1.233,0,0,1,136.71-280.818Z" transform="translate(-119.994 -120.968)"/>
      <path id="Path_249" data-name="Path 249" d="M192.821-282.839a2,2,0,0,0-1.13,1.7,3.576,3.576,0,0,0,.4,2.26,1.9,1.9,0,0,0,1.916.807c.657-.032.818-.075,1.141-.344a2.411,2.411,0,0,0,.743-1.216,2.414,2.414,0,0,0-1.13-.463c-.065,0-.183.172-.258.377a.677.677,0,0,1-.9.441c-.344-.086-.506-.5-.506-1.292s.258-1.248.71-1.248c.355,0,.689.183.689.387a.226.226,0,0,0,.14.2c.215.086,1.205-.226,1.173-.366-.022-.086.14-.118.538-.1l.57.032.032,1.8.022,1.808h1.4v-3.659h1.292v3.659h3.767v-1.173l-1.152-.032-1.162-.032-.032-.409-.032-.4h2.11l-.032-.538-.043-.538h-1.916v-.646h2.153V-283h-7.749v.8l-.387-.366c-.355-.355-.431-.377-1.205-.409A2.241,2.241,0,0,0,192.821-282.839Z" transform="translate(-171.294 -121.058)"/>
      <path id="Path_250" data-name="Path 250" d="M62.146-270.824a1.068,1.068,0,0,0-.646,1.087c0,.409.054.56.269.743a2.03,2.03,0,0,0,2.465.377,1.054,1.054,0,0,0-.022-1.69c-.269-.237-.28-.226-.581.054l-.248.237.226.237c.312.334.2.581-.248.581-.743,0-1.421-.743-.753-.839.194-.032.237-.108.237-.463s-.032-.42-.237-.409A1.6,1.6,0,0,0,62.146-270.824Zm.592.28a.362.362,0,0,1-.183.344c-.635.237-.334.872.517,1.087.355.086.463.075.667-.086s.215-.226.1-.4c-.248-.366-.269-.484-.086-.657s.2-.161.506.172a.8.8,0,0,1,.151,1.1c-.28.538-.818.667-1.722.42-.527-.151-1.13-.732-1.13-1.109a1.072,1.072,0,0,1,.592-.99C62.619-270.867,62.738-270.846,62.738-270.544Z" transform="translate(-55.148 -131.845)"/>
      <path id="Path_251" data-name="Path 251" d="M342.322-267.216c-.689.215-1.324.431-1.421.463-.14.054-.118.2.161,1.033l.323.958.334-.1a1.37,1.37,0,0,0,.377-.14,1.289,1.289,0,0,0-.118-.56,1.434,1.434,0,0,1-.108-.592c.129-.215.355-.075.474.3.172.538.237.592.592.506.312-.075.3-.011.086-.99-.043-.161-.011-.237.108-.237s.215.183.3.538c.151.592.14.592.624.42.258-.1.323-.161.269-.3-.032-.1-.172-.506-.3-.915a1.984,1.984,0,0,0-.344-.775A11.452,11.452,0,0,0,342.322-267.216Zm1.625.538c.248.8.237.969-.1.969-.151,0-.248-.129-.334-.463-.172-.57-.2-.613-.5-.5-.237.086-.237.1-.065.581.183.549.183.538-.14.635-.2.065-.248.011-.366-.474a2.429,2.429,0,0,0-.172-.538,1.566,1.566,0,0,0-.581.312c0,.032.075.291.151.57.161.517.108.624-.3.624a4.168,4.168,0,0,1-.581-1.679,20.419,20.419,0,0,1,2.519-.786C343.656-267.432,343.743-267.3,343.947-266.678Z" transform="translate(-304.403 -134.796)"/>
      <path id="Path_252" data-name="Path 252" d="M347.462-242.854a.747.747,0,0,0-.366.915,2.477,2.477,0,0,1,.108.538,1.193,1.193,0,0,0,.065.387c.043.043,3-.441,3.057-.5a1.969,1.969,0,0,0-.022-.387c-.065-.366-.065-.366-.517-.291-.431.065-.463.054-.409-.161a.513.513,0,0,0-.183-.484A1.513,1.513,0,0,0,347.462-242.854Zm1.636.086a.454.454,0,0,1,.151.5c-.065.258-.043.269.4.226.409-.032.463,0,.5.2.022.172-.032.258-.215.291-.452.108-2.185.387-2.357.387-.226,0-.366-.334-.194-.441.1-.054.086-.129-.054-.258a.617.617,0,0,1-.151-.474C347.236-242.929,348.624-243.241,349.1-242.768Z" transform="translate(-309.962 -156.651)"/>
      <path id="Path_253" data-name="Path 253" d="M353.281-236.818c-.28.2-.14.5.248.5s.721-.237.635-.474C354.077-237.012,353.561-237.022,353.281-236.818Zm.807.065c0,.14-.366.323-.635.323-.248,0-.312-.269-.086-.355S354.088-236.861,354.088-236.753Z" transform="translate(-315.394 -162.138)"/>
      <path id="Path_254" data-name="Path 254" d="M61.248-231.765c-.2.14-.248.269-.248.753s.043.613.237.743c.323.226.517.215.517-.032,0-.291.183-.377.248-.129a.815.815,0,0,0,.861.5.752.752,0,0,0,.42-.969c-.065-.14-.075-.269-.032-.291a.691.691,0,0,0,.151-.366l.065-.334-.99-.022C61.721-231.927,61.431-231.894,61.248-231.765Zm1.679.011c.334.065.484.409.215.5-.075.022-.075.129.022.334a.6.6,0,0,1,.011.57c-.108.226-.194.269-.527.237-.431-.032-.506-.14-.678-.807-.086-.334-.161-.441-.269-.4a.34.34,0,0,0-.065.517c.1.065.032.6-.075.6a.7.7,0,0,1-.258-.183,1.161,1.161,0,0,1-.022-1.259A2.619,2.619,0,0,1,62.927-231.755Zm-1.066.743c0,.086-.043.161-.108.161s-.108-.075-.108-.161.054-.161.108-.161S61.861-231.1,61.861-231.012Z" transform="translate(-54.702 -166.642)"/>
      <path id="Path_255" data-name="Path 255" d="M72.593-225.677c.118.323.441.441.581.2.1-.151-.258-.527-.5-.527C72.507-226,72.5-225.957,72.593-225.677Zm.42.075c0,.215-.258.118-.3-.108-.022-.129.011-.161.129-.118A.266.266,0,0,1,73.013-225.6Z" transform="translate(-64.993 -171.923)"/>
      <path id="Path_256" data-name="Path 256" d="M349.6-222.925c-.506.129-.764.678-.463.979.1.1.1.129,0,.129s-.129.14-.108.377l.022.377h2.325v-.893l-.56.065c-.6.075-1.055.011-1.055-.151,0-.054.183-.1.409-.1a6.979,6.979,0,0,0,.807-.065c.366-.065.4-.1.4-.431V-223l-.775.011C350.167-222.978,349.715-222.946,349.6-222.925Zm1.647.312c.032.2-.032.237-.678.291-.829.065-1.087.215-.764.463a1.858,1.858,0,0,0,.85.151c.592,0,.624.011.592.237s-.086.248-1.022.28l-1,.032v-.28c0-.183.054-.269.183-.269.151,0,.14-.032-.054-.172a.52.52,0,0,1-.1-.775,2.178,2.178,0,0,1,1.313-.194C351.136-222.839,351.211-222.817,351.243-222.613Z" transform="translate(-311.71 -174.6)"/>
      <path id="Path_257" data-name="Path 257" d="M199.5-220.877c-.043.054.032.075.151.043a.708.708,0,0,1,.4.022c.183.075.183.086-.011.151s-.2.086.022.14c.258.075.323-.108.108-.323C200.015-221,199.585-221.017,199.5-220.877Z" transform="translate(-178.283 -176.41)"/>
      <path id="Path_258" data-name="Path 258" d="M236.5-220.846a.467.467,0,0,1,.118.4c-.043.161-.1.194-.172.118-.14-.14-.581-.151-.657-.022-.043.054.032.075.151.043a.708.708,0,0,1,.4.022c.183.075.183.086-.022.172-.183.086-.172.1.065.043.194-.032.28,0,.28.108,0,.129-.237.161-1.335.161a5.853,5.853,0,0,0-1.324.075,3.724,3.724,0,0,0,1.184.054c.786-.022,1.184,0,1.184.075s-.194.118-.431.118c-.4,0-.431.022-.431.312s.032.3.3.237.269-.065.054-.1c-.14-.022-.248-.108-.248-.194,0-.129.118-.151.517-.129l.506.032.054.915c.043.753.086.915.248.947s.183-.065.183-.936.022-.979.2-.979a.59.59,0,0,1,.377.237l.183.248-.129-.269a1.333,1.333,0,0,0-.3-.4c-.14-.108.054-.129.99-.14a2.792,2.792,0,0,1,1.152.108c0,.054-.075.108-.161.108-.129,0-.161.183-.161.979,0,.613-.043.947-.108.9a2.716,2.716,0,0,1-.108-.979c0-.839-.011-.9-.226-.9-.183,0-.215.043-.151.312.054.237,0,.377-.215.635s-.237.344-.14.409c.075.043.108.043.065-.011s.043-.226.194-.409c.194-.226.258-.4.2-.581-.032-.14-.011-.248.054-.248s.108.366.108.9c0,.861.065,1.033.377,1.033a3.959,3.959,0,0,0,.075-.947l.032-.936.84-.032c.463-.022.829.011.829.075,0,.172-.312.226-.592.1-.215-.1-.3-.1-.409.011s-.086.118.054.065a.5.5,0,0,1,.387.043c.28.151.667.032.667-.215,0-.183-.086-.2-.753-.2-.431,0-.753-.043-.753-.108s.409-.108,1.022-.108,1.022.043,1.022.108a.108.108,0,0,1-.108.108c-.065,0-.108.4-.108.979,0,.732-.032.969-.129.936s-.161-.312-.194-.689l-.054-.635-.237.237c-.3.3-.4.312-.323.032.075-.312-.1-.366-.355-.108-.28.28-.269.387.054.689s.387.614.086.377c-.172-.14-.183-.129-.043.032.183.248.291.248.366-.011.032-.14-.032-.248-.2-.334a.854.854,0,0,1-.3-.28c-.075-.194.032-.474.172-.474.065,0,.086.065.054.14s.032.2.14.269c.172.1.215.086.269-.086.129-.387.269-.226.269.312,0,.377.043.549.172.592.3.118.366-.043.366-.969,0-.893,0-.9.269-.9.215,0,.269.054.269.291a.826.826,0,0,1-.161.463c-.151.161-.14.215.065.463.258.344.484.377.56.075a.285.285,0,0,1,.269-.215c.172,0,.226.086.258.431.022.28-.011.431-.086.431s-.108.086-.075.215a.284.284,0,0,0,.237.215,1.315,1.315,0,0,1,.549.269c.527.387.646.194.151-.269l-.42-.387.032-.99c.032-.9.043-.99.248-.99.183,0,.194-.032.1-.215-.108-.2-.226-.215-3.476-.215h-3.358l-.215-.56a1.318,1.318,0,0,0-.377-.6C236.346-221.008,236.357-220.986,236.5-220.846Zm.581,1.152c.086,0,.151.043.151.108a.108.108,0,0,1-.108.108c-.065,0-.108.4-.108.969s-.043.969-.108.969-.108-.377-.108-.926c0-.764-.032-.958-.183-1.076-.183-.14-.183-.14.011-.151.118,0,.172-.054.14-.151a.232.232,0,0,1,.011-.226c.043-.043.086.032.108.151S236.992-219.695,237.078-219.695Zm6.716.108c0,.054-.075.108-.161.108-.129,0-.161.183-.161.979,0,.613-.043.947-.108.9a.711.711,0,0,1-.108-.441c0-.344-.022-.366-.377-.366-.3,0-.377.043-.377.215,0,.28-.161.269-.366-.022-.151-.2-.151-.258-.011-.409.215-.237.215-.861.011-.861a.3.3,0,0,1-.226-.108c-.043-.065.291-.108.9-.108C243.4-219.695,243.794-219.652,243.794-219.587Zm.086,2.648c.226.226.28.323.129.215a5.694,5.694,0,0,0-.56-.312c-.323-.129-.4-.291-.14-.291A1.509,1.509,0,0,1,243.88-216.939Z" transform="translate(-209.082 -176.398)"/>
      <path id="Path_259" data-name="Path 259" d="M313-206.569c0,.42.011.431.377.431s.377-.011.377-.431-.011-.431-.377-.431S313-206.989,313-206.569Zm.646,0c0,.248-.043.323-.215.323a.317.317,0,0,1-.28-.161.326.326,0,0,1,.28-.484C313.6-206.892,313.646-206.817,313.646-206.569Z" transform="translate(-279.58 -188.878)"/>
      <path id="Path_260" data-name="Path 260" d="M106.822-219.935c-.151.151.161.474.452.474a.4.4,0,0,1,.42.269l.129.269h-1.141c-1.076,0-1.119.011-1.012.2a.512.512,0,0,0,.344.248c.323.043.323.237.011.28s-.312.215,0,.678a.713.713,0,0,0,.581.4c.258.022.355.1.377.269a.329.329,0,0,0,.226.269c.161.032.183-.065.183-.947s.022-.979.194-.947c.151.032.194.194.237.947s.086.915.248.947.183-.065.183-.947v-.979l.3.032c.334.032.484.474.194.581a.285.285,0,0,0-.172.258c0,.183.312.538.5.538.043,0-.022-.075-.151-.172-.269-.183-.312-.452-.075-.538.1-.043.161-.2.161-.42,0-.28-.054-.355-.237-.4-.581-.1-.624-.032-.624,1,0,.57-.043.958-.108.958s-.108-.387-.108-.958c0-.667-.043-.979-.129-1.012-.108-.043-.108-.075,0-.161a.289.289,0,0,0,.075-.3c-.043-.161-.032-.151.065.032.161.291.269.312,1.5.237l1.022-.054-1.152-.022-1.152-.022-.183-.355c-.269-.527-.484-.721-.8-.721A.753.753,0,0,0,106.822-219.935Zm.829.28a.861.861,0,0,1,.172.355c0,.054-.054.022-.118-.086a.5.5,0,0,0-.42-.183q-.323,0-.323-.161C106.962-219.978,107.468-219.925,107.651-219.656Zm-.151.947a.108.108,0,0,1-.108.108c-.065,0-.108.4-.108.979,0,.613-.043.947-.108.9a.377.377,0,0,1-.108-.28c0-.161-.075-.2-.377-.2a.554.554,0,0,1-.592-.355c-.248-.409-.269-.506-.075-.506s.387-.215.323-.387a.341.341,0,0,0-.312-.151c-.14,0-.258-.054-.258-.108s.355-.108.861-.108S107.5-218.773,107.5-218.708Z" transform="translate(-94.529 -177.277)"/>
      <path id="Path_261" data-name="Path 261" d="M111.657-206.817c0,.118.032.14.065.054a.235.235,0,0,1,.2-.129c.129,0,.151.108.129.452-.032.42-.065.463-.323.5-.366.043-.377-.043-.054-.4l.237-.258-.291.2c-.355.237-.344.517,0,.56.377.054.56-.161.56-.689,0-.431-.022-.474-.269-.474C111.732-207,111.646-206.946,111.657-206.817Z" transform="translate(-99.644 -188.878)"/>
      <path id="Path_262" data-name="Path 262" d="M252-218.3c0,.054.118.1.269.1s.269-.022.269-.043-.118-.065-.269-.086S252-218.34,252-218.3Z" transform="translate(-225.145 -178.754)"/>
      <path id="Path_263" data-name="Path 263" d="M168.875-213.817c0,.075-.054.108-.129.065s-.086-.032-.043.054a.155.155,0,0,0,.194.054c.075-.043.086-.022.043.043a6.259,6.259,0,0,1-2.013.129,11.481,11.481,0,0,0-1.927.086c0,.2.291.344.732.344.377,0,.463.032.409.161-.032.086-.011.161.043.161s.108-.1.108-.215c0-.183-.075-.215-.527-.215a1.147,1.147,0,0,1-.6-.108c-.043-.065.355-.108,1.119-.108a3.016,3.016,0,0,1,1.195.108c0,.054-.215.108-.484.108-.463,0-.484.011-.484.3s.032.3.366.3c.2-.011.344-.054.312-.1s-.172-.075-.312-.043c-.194.032-.258,0-.258-.151,0-.172.086-.2.646-.2h.646v.323c0,.172-.043.323-.1.323-.226,0-.226.366,0,.613.291.3.387.312.474.032a.309.309,0,0,1,.323-.215c.215,0,.258.065.3.4l.043.409.011-.463c.022-.441.022-.452-.344-.452-.291,0-.377.054-.431.237l-.054.248-.248-.237c-.215-.226-.226-.248-.054-.441a.948.948,0,0,0,.183-.538c0-.269-.043-.344-.215-.344-.118,0-.215-.043-.215-.108a8.831,8.831,0,0,1,1.991-.108,8.038,8.038,0,0,1,1.991.108c0,.065-.075.108-.161.108-.118,0-.161.2-.183.979-.032.926-.054.99-.28,1.076s-.248.065-.183-.151.054-.215-.065-.043c-.108.194-.14.183-.517-.151-.215-.2-.118-.086.2.248.366.377.646.581.743.538s.129-.011.075.065c-.1.161-.646.108-.872-.086s-.108-.28.129-.1c.183.129.183.129.011-.065-.129-.14-.226-.172-.3-.1s0,.215.226.431c.194.172.312.248.269.172-.065-.1-.011-.118.172-.075a.365.365,0,0,0,.4-.1c.14-.172.118-.194-.194-.215-.258-.022-.248-.258.011-.3.237-.032.248-.075.28-1.033.032-.9.043-.99.248-.99.183,0,.194-.032.1-.215s-.226-.215-1.41-.215a4.377,4.377,0,0,1-1.238-.086.27.27,0,0,0-.054-.237C168.907-213.914,168.875-213.925,168.875-213.817Z" transform="translate(-147.509 -182.728)"/>
      <path id="Path_264" data-name="Path 264" d="M53-212.5v.441h3.121v-.807h-2.26l-.011.323-.011.323-.075-.323c-.054-.269-.129-.334-.42-.355C53.011-212.926,53-212.915,53-212.5Zm.538.065c0,.194-.054.269-.215.269s-.215-.075-.215-.269.054-.269.215-.269S53.538-212.624,53.538-212.431Zm2.475,0c0,.269,0,.269-1.022.269s-1.022,0-1.022-.269,0-.269,1.022-.269S56.014-212.7,56.014-212.431Z" transform="translate(-47.563 -183.608)"/>
      <path id="Path_265" data-name="Path 265" d="M139.845-207.835c-.172.043-.194.183-.194,1.012,0,.57-.043.958-.108.958s-.108-.4-.108-.969v-.969h-.312c-.312,0-.312.011-.355.635-.011.355,0,.613.054.581a1.3,1.3,0,0,0,.075-.581c0-.452.032-.527.215-.527s.2.086.237.936c.032.8.065.947.226.979s.183-.065.183-.936c0-.8.032-.979.161-.979.086,0,.161-.054.161-.108s-.011-.1-.022-.1S139.942-207.868,139.845-207.835Z" transform="translate(-124.098 -188.075)"/>
      <path id="Path_266" data-name="Path 266" d="M203.947-207.334c-.151.032-.183.2-.215,1.055a2.737,2.737,0,0,0,.054,1.012,3.165,3.165,0,0,0,.075-.969v-.969h.312c.269,0,.323.054.366.291.043.291.043.291.065-.032.011-.28-.032-.344-.226-.387A1.433,1.433,0,0,0,203.947-207.334Z" transform="translate(-182.064 -188.565)"/>
      <path id="Path_267" data-name="Path 267" d="M195-206.569c0,.42.011.431.377.431s.377-.011.377-.431-.011-.431-.377-.431S195-206.989,195-206.569Zm.646,0c0,.269-.043.323-.269.323s-.269-.054-.269-.323.043-.323.269-.323S195.646-206.839,195.646-206.569Z" transform="translate(-174.28 -188.878)"/>
      <path id="Path_268" data-name="Path 268" d="M214.094-206.6c.032.377.065.409.355.409s.323-.032.355-.409c.032-.4.032-.4-.355-.4S214.061-207,214.094-206.6Zm.624.043c0,.28-.032.323-.237.291-.183-.022-.258-.118-.28-.334-.032-.248,0-.291.237-.291S214.718-206.849,214.718-206.559Z" transform="translate(-191.307 -188.878)"/>
      <path id="Path_269" data-name="Path 269" d="M235.07-206.8c.452.032.56.075.517.2-.032.075-.011.151.043.151s.108-.1.108-.215c0-.194-.065-.215-.613-.194l-.624.022Z" transform="translate(-209.529 -189)"/>
      <path id="Path_270" data-name="Path 270" d="M271.523-206.821c-.032.054.022.075.14.043a.2.2,0,0,1,.269.151c.043.172.054.161.032-.022C271.943-206.874,271.631-207,271.523-206.821Z" transform="translate(-242.559 -188.96)"/>
      <path id="Path_271" data-name="Path 271" d="M150.627-205.717c-.161.194-.161.215.032.387.151.14.226.151.291.054.043-.075.032-.108-.032-.065-.194.118-.387-.194-.215-.344.086-.065.194-.075.237-.032s.054.011.011-.065C150.853-205.954,150.843-205.943,150.627-205.717Z" transform="translate(-134.578 -189.859)"/>
      <path id="Path_272" data-name="Path 272" d="M54.292-203.654c-.678.075-1.249.14-1.259.151a1.209,1.209,0,0,0-.032.4v.4l.463-.054c.452-.054.463-.043.42.237-.086.635.969.969,1.862.6.5-.2.657-.538.441-.872-.1-.14-.129-.269-.075-.291s.065-.194.043-.387C56.089-203.87,56.2-203.859,54.292-203.654Zm1.722.215c0,.183-.065.269-.183.269-.151,0-.14.032.054.172a.564.564,0,0,1,.237.484c0,.269-.065.355-.377.484a1.708,1.708,0,0,1-1.561-.065c-.248-.248-.258-.355-.1-.667.118-.215.108-.226-.366-.161-.431.065-.506.043-.56-.151a.358.358,0,0,1-.011-.28,18.317,18.317,0,0,1,2.734-.344C55.949-203.7,56.014-203.59,56.014-203.439Z" transform="translate(-47.563 -191.739)"/>
      <path id="Path_273" data-name="Path 273" d="M67.174-196.792c-.323.237-.129.517.334.474s.743-.344.474-.517A.737.737,0,0,0,67.174-196.792Zm.753.172c0,.108-.129.172-.4.194-.3.022-.409-.011-.409-.129,0-.194.183-.269.538-.248C67.82-196.792,67.928-196.717,67.928-196.62Z" transform="translate(-60.069 -197.858)"/>
      <path id="Path_274" data-name="Path 274" d="M348.786-203.473a1.322,1.322,0,0,0-.786.947.986.986,0,0,0,.517.9c.215.108.291.1.355-.011.129-.194.118-.624-.011-.624-.054,0-.108-.1-.108-.215,0-.161.075-.215.312-.215a1.882,1.882,0,0,1,.484.065.224.224,0,0,1,.011.431c-.1.043-.161.2-.161.431a.845.845,0,0,0,.043.366,1.152,1.152,0,0,0,.861-.592c.2-.42.2-.506.054-.84A1.588,1.588,0,0,0,348.786-203.473Zm1.195.366c.506.4.3,1.5-.28,1.5-.248,0-.258-.291-.011-.56.269-.3.065-.56-.5-.6-.506-.043-.667.151-.441.57a.436.436,0,0,1,.022.441c-.1.172-.129.161-.387-.1a.8.8,0,0,1-.011-1.205A1.371,1.371,0,0,1,349.98-203.107Z" transform="translate(-310.813 -192.007)"/>
      <path id="Path_275" data-name="Path 275" d="M271.4-202.094c0,.129.043.215.086.194a.106.106,0,0,0,.032-.151c-.032-.054.032-.108.129-.129.172-.032.161-.054-.021-.1S271.4-202.288,271.4-202.094Z" transform="translate(-242.457 -193.073)"/>
      <path id="Path_276" data-name="Path 276" d="M167.233-201.894c-.1.161.032.484.291.71.215.194.215.183-.022-.14a.8.8,0,0,1-.183-.506C167.395-202.024,167.341-202.067,167.233-201.894Z" transform="translate(-149.473 -193.337)"/>
      <path id="Path_277" data-name="Path 277" d="M170.336-201.73c-.226.194-.237.226-.1.366a.374.374,0,0,0,.635-.269c-.022-.237-.022-.237-.065-.022-.043.248-.42.42-.527.248-.075-.14.043-.312.237-.312.086,0,.151-.054.151-.108C170.669-201.977,170.616-201.966,170.336-201.73Z" transform="translate(-152.102 -193.405)"/>
      <path id="Path_278" data-name="Path 278" d="M236.1-200.493c-.011.28.57.85.786.764.108-.043.172.011.2.172.032.194.054.183.065-.065s-.022-.291-.2-.237a.347.347,0,0,1-.474-.409c.043-.226.043-.226-.054-.022-.1.226-.1.226-.258-.269Q236.1-200.719,236.1-200.493Z" transform="translate(-210.955 -194.567)"/>
      <path id="Path_279" data-name="Path 279" d="M240.984-200.729a.558.558,0,0,1-.237.344l-.248.183.248-.118c.258-.129.42-.387.3-.506C241.017-200.869,240.984-200.815,240.984-200.729Z" transform="translate(-214.883 -194.374)"/>
      <path id="Path_280" data-name="Path 280" d="M182.5-199.262a.794.794,0,0,1-.075.5c-.108.194-.151.2-.3.086s-.172-.118-.032.043c.194.258.28.248.42-.075s.161-.667.032-.743C182.5-199.488,182.48-199.4,182.5-199.262Z" transform="translate(-162.674 -195.604)"/>
      <path id="Path_281" data-name="Path 281" d="M247.882-199.748c-.183.2-.312,1.109-.172,1.109.054,0,.086-.215.086-.474a.878.878,0,0,1,.161-.6c.237-.194.323-.054.172.291-.108.226-.1.312.022.441.108.108.183.118.237.032s.011-.108-.075-.1-.129-.054-.108-.183C248.313-199.909,248.194-200.1,247.882-199.748Z" transform="translate(-221.264 -195.194)"/>
      <path id="Path_282" data-name="Path 282" d="M266.109-199.749c-.032.1-.032.2.011.237s.065-.011.065-.108a.249.249,0,0,1,.194-.215c.172-.043.172-.054-.011-.065A.3.3,0,0,0,266.109-199.749Z" transform="translate(-237.715 -195.214)"/>
      <path id="Path_283" data-name="Path 283" d="M173.859-198.871a.95.95,0,0,0-.129.549c0,.248-.043.387-.108.344a.376.376,0,0,1-.108-.28c0-.226-.086-.258-.323-.086-.14.1-.129.108.032.054.129-.043.183,0,.183.151,0,.118.022.215.043.215a1.684,1.684,0,0,1,.215.065c.14.054.172-.022.172-.409a1.109,1.109,0,0,1,.129-.6c.075-.075.108-.129.075-.129A.432.432,0,0,0,173.859-198.871Z" transform="translate(-154.732 -196.017)"/>
      <path id="Path_284" data-name="Path 284" d="M212.2-197.169c-.1.14-.1.151,0,.054a.644.644,0,0,1,.452-.065c.291.043.323.086.323.409,0,.2.032.366.086.366s.065-.194.043-.42c-.043-.387-.065-.42-.409-.463C212.434-197.319,212.273-197.276,212.2-197.169Z" transform="translate(-189.562 -197.536)"/>
      <path id="Path_285" data-name="Path 285" d="M149.823-196.508c-.054.075-.043.108.032.054.14-.086.28.108.183.269-.054.075-.151.043-.3-.086l-.237-.194.2.248c.194.215.226.226.377.075s.151-.183-.011-.334C149.941-196.605,149.887-196.616,149.823-196.508Z" transform="translate(-133.677 -198.175)"/>
      <path id="Path_286" data-name="Path 286" d="M288.1-196.693a1.194,1.194,0,0,0,.151.377c.086.151.151.215.151.161a1.1,1.1,0,0,0-.151-.377C288.165-196.682,288.1-196.757,288.1-196.693Z" transform="translate(-257.36 -198.055)"/>
      <path id="Path_287" data-name="Path 287" d="M268.284-194.841a1.284,1.284,0,0,1,.463.366c.3.355.409.387.506.129a.311.311,0,0,0-.118-.344c-.172-.161-.172-.161-.032.022.1.14.108.226.032.3s-.194.022-.366-.215c-.151-.2-.334-.334-.463-.323C268.1-194.894,268.1-194.884,268.284-194.841Z" transform="translate(-239.556 -199.67)"/>
      <path id="Path_288" data-name="Path 288" d="M65.493-185.7a7.654,7.654,0,0,0-.936.312.584.584,0,0,0-.194.85.6.6,0,0,1,.118.452c-.1.549.043.581,1.238.3l1.087-.248-.065-.323c-.1-.474-.108-.474-.721-.312-.689.183-.969.194-.915.022a1.724,1.724,0,0,1,.721-.3,1.688,1.688,0,0,0,.667-.248c.011-.215-.14-.721-.2-.71C66.247-185.891,65.892-185.794,65.493-185.7Zm.861.28c.022.183-.054.237-.538.355-.721.161-.893.258-.8.5.075.194.312.194,1.205,0,.28-.065.344-.043.4.151.075.28.065.291-1.012.549-.689.161-.915.183-.979.075-.14-.215-.1-.4.086-.4.129,0,.108-.065-.108-.226-.538-.431-.291-.84.689-1.1C66.053-185.729,66.311-185.708,66.355-185.417Z" transform="translate(-57.603 -207.705)"/>
      <path id="Path_289" data-name="Path 289" d="M343.7-184.806a.8.8,0,0,0-.269.57,2.3,2.3,0,0,1-.14.678,1.085,1.085,0,0,0-.108.334,10.422,10.422,0,0,0,1.808.377c.678,0,1.044-1.292.474-1.668-.312-.2-.312-.2-.409.161l-.075.269.151-.248c.14-.237.151-.237.323-.043a.98.98,0,0,1,.021,1.1c-.194.387-.484.409-1.453.14-.5-.129-.646-.226-.646-.377a.174.174,0,0,1,.151-.194c.118,0,.14-.108.1-.452s-.021-.474.129-.592c.506-.366,1.022.021,1.022.775,0,.366.043.484.161.484.248,0,.323-.3.129-.517a1.442,1.442,0,0,1-.237-.463.83.83,0,0,0-.743-.527A.809.809,0,0,0,343.7-184.806Zm1.4,1.044c0,.086-.043.161-.108.161s-.108-.075-.108-.161.054-.161.108-.161S345.1-183.848,345.1-183.762Z" transform="translate(-306.516 -208.51)"/>
      <path id="Path_290" data-name="Path 290" d="M350-178.712a.472.472,0,0,0,.4.506c.172,0,.183-.452.011-.624C350.2-179.035,350-178.981,350-178.712Zm.377.086c.086.248.011.366-.151.258-.14-.086-.161-.484-.021-.484C350.258-178.852,350.344-178.755,350.377-178.626Z" transform="translate(-312.597 -213.905)"/>
      <path id="Path_291" data-name="Path 291" d="M62.622-166.406c-.764.28-1.41.506-1.431.517a2.081,2.081,0,0,0,.14.409l.161.387,1.453-.506a5.464,5.464,0,0,0,1.453-.635c0-.172-.237-.678-.312-.667C64.053-166.9,63.4-166.675,62.622-166.406Zm1.6-.011c.065.2-.043.269-1.205.678-1.431.5-1.518.506-1.539.28-.011-.086-.022-.215-.032-.28a10.025,10.025,0,0,1,2.637-.958A.6.6,0,0,1,64.225-166.417Z" transform="translate(-54.871 -224.66)"/>
      <path id="Path_292" data-name="Path 292" d="M337.211-165.743a1.771,1.771,0,0,0-.387.678c-.108.291-.226.6-.258.689-.065.161.614.56,2.163,1.249l.57.258.172-.334a.924.924,0,0,0,.129-.366c-.022-.011-.151-.086-.291-.161-.226-.118-.28-.108-.42.065-.151.194-.151.194-.086-.011s-.065-.291-.829-.678c-.484-.248-.775-.431-.646-.4s.248.011.269-.086c.054-.237.732-.011.732.237,0,.129.118.248.334.323.431.151.42.151.42-.043,0-.151.043-.151.4,0a1.115,1.115,0,0,0,.431.118c.108-.1-.172-.8-.409-1.055-.291-.312-.689-.474-.786-.312-.043.065-.3.022-.678-.108C337.319-165.926,337.448-165.915,337.211-165.743Zm.99.226a1.482,1.482,0,0,0,.667.1c.258-.065.861.517.861.85,0,.161-.043.172-.28.086-.194-.075-.334-.075-.431.011-.2.172-.527.075-.527-.161s-.764-.56-.958-.4a1.431,1.431,0,0,1-.355.14c-.237.065-.258-.032-.086-.57C337.179-165.71,337.577-165.732,338.2-165.517Zm-.409,1.205c.56.258.861.463.861.57a.762.762,0,0,0,.108.334c.075.129.108.118.183-.075s.118-.215.323-.108.215.161.108.355c-.129.226-.151.226-1.453-.4-1.227-.581-1.313-.646-1.205-.85.065-.118.14-.215.172-.215S337.329-164.527,337.792-164.311Z" transform="translate(-300.605 -225.582)"/>
      <path id="Path_294" data-name="Path 294" d="M73.743-146.151c-.678.409-1.281.753-1.335.775s-.011.172.1.355.215.323.226.344.624-.334,1.378-.786l1.356-.818-.226-.323a1.439,1.439,0,0,0-.237-.3C74.991-146.9,74.421-146.56,73.743-146.151Zm.366.56c-1,.6-1.27.71-1.388.613a.464.464,0,0,1-.161-.258,6.089,6.089,0,0,1,1.216-.829c1.195-.7,1.205-.71,1.388-.484S75.314-146.313,74.108-145.592Z" transform="translate(-64.862 -242.504)"/>
      <path id="Path_295" data-name="Path 295" d="M329.681-145.879a.8.8,0,0,0-.172,1.162l.226.269-.183-.291a.85.85,0,0,1,.71-1.27c1.022,0,1.657,1.044,1.022,1.668a.926.926,0,0,1-1.173.108c-.172-.1-.334-.151-.355-.118-.075.075.7.387.99.387a1.11,1.11,0,0,0,.915-.979c0-.269-.1-.441-.431-.764A1.092,1.092,0,0,0,329.681-145.879Z" transform="translate(-294.151 -243.196)"/>
      <path id="Path_296" data-name="Path 296" d="M335.2-139.795c-.043.118.032.258.237.431.355.312.743.291.786-.043C336.29-139.848,335.365-140.2,335.2-139.795Zm.764.1c.226.226.215.474-.021.474-.258,0-.667-.3-.667-.5S335.752-139.913,335.967-139.7Z" transform="translate(-299.383 -248.689)"/>
      <path id="Path_297" data-name="Path 297" d="M78.359-138.161l-1.259.84.248.3.237.312,1.066-.71a7.162,7.162,0,0,1,1.109-.678,8.791,8.791,0,0,1-.764,1.162l-.8,1.119.291.344.28.344,1.4-.6c.764-.323,1.421-.624,1.464-.667s-.043-.215-.172-.387c-.215-.248-.291-.28-.463-.183s-.258.065-.474-.161c-.226-.248-.237-.28-.075-.441s.151-.215-.248-.8a2.74,2.74,0,0,0-.506-.635A14.851,14.851,0,0,0,78.359-138.161Zm1.528-.527c.075.151.075.237,0,.28a.118.118,0,0,0-.043.172.11.11,0,0,0,.161.032c.054-.032.194.054.3.194.194.226.194.269.043.43s-.151.215.032.431c.3.355.387.409.592.3.129-.075.237-.032.4.14l.237.248-1.367.57c-1.378.592-1.539.613-1.787.215-.075-.118.1-.452.678-1.27,1.012-1.431.915-1.561-.5-.613-1.022.678-1.055.7-1.205.484-.086-.118-.118-.248-.086-.291.118-.118,2.271-1.507,2.346-1.518C79.737-138.892,79.823-138.8,79.888-138.688Z" transform="translate(-69.069 -249.559)"/>
      <path id="Path_298" data-name="Path 298" d="M97.006-119.416c-.387.538-.355.56.28.226.441-.237.441-.237.258-.474l-.194-.237Zm.527-.075c0,.043-.129.14-.28.2-.28.129-.28.075-.011-.269C97.34-119.7,97.534-119.652,97.534-119.491Z" transform="translate(-86.608 -266.603)"/>
      <path id="Path_299" data-name="Path 299" d="M316.818-132.459l-.194.28.549.484a2.424,2.424,0,0,1,.549.581c0,.2-.291.086-.807-.344l-.527-.441-.194.237a.93.93,0,0,0-.194.323,6.482,6.482,0,0,0,1.421,1.195.571.571,0,0,0,.8-.355,1.312,1.312,0,0,1,.377-.5l.312-.258-.872-.721c-.484-.387-.9-.721-.947-.732S316.936-132.609,316.818-132.459Zm1.754,1.356a.247.247,0,0,1-.269.151c-.108-.043-.151.022-.151.2a.49.49,0,0,1-.581.527,6.552,6.552,0,0,1-1.421-1.022c-.032-.054.011-.194.086-.3.14-.2.172-.194.71.226s.883.484.883.151a1.639,1.639,0,0,0-.538-.56,3.423,3.423,0,0,1-.538-.463.771.771,0,0,1,.172-.237c.172-.183.215-.161.969.452C318.583-131.393,318.669-131.285,318.572-131.1Z" transform="translate(-282.257 -255.175)"/>
      <g id="Group_537" data-name="Group 537" transform="translate(17.19 -391.236)">
        <circle id="Ellipse_129" data-name="Ellipse 129" cx="5.637" cy="5.637" r="5.637" transform="translate(0 0)" fill="url(#linear-gradient)"/>
        <path id="Path_309" data-name="Path 309" d="M84.533-894.724a6.873,6.873,0,0,1,3.575,1.144c-.013.2-.374.275-.8.361a3.505,3.505,0,0,1-.768.072,3.61,3.61,0,0,1-.706-.056,3.781,3.781,0,0,1-1.791-.706c-.063-.049-.149-.2-.251-.3l-.146-.142-.146.142a3.728,3.728,0,0,1-2.039,1.009,3.535,3.535,0,0,1-.709.056,3.212,3.212,0,0,1-1.261-.222c-.175-.076-.277-.136-.315-.211a8.549,8.549,0,0,1,3.064-1.11l.292-.023.275-.013c.113,0,.208-.009.211-.011a.988.988,0,0,1,.125,0h.12S84.454-894.727,84.533-894.724Z" transform="translate(-78.003 900.794)" fill="#ff0"/>
        <path id="Path_303" data-name="Path 303" d="M83.835-891.43l.288.335a7.206,7.206,0,0,0,1.883.692,6.321,6.321,0,0,0,1.04,0,3.018,3.018,0,0,0,.95-.261.748.748,0,0,1,.118-.052,1.851,1.851,0,0,1-.1.31,3.6,3.6,0,0,1-1.96,1.845,6.2,6.2,0,0,1-3.431.407,4.21,4.21,0,0,1-3.357-2.253,1.653,1.653,0,0,1-.095-.311.253.253,0,0,1,.078.034,3.056,3.056,0,0,0,.987.279,6.335,6.335,0,0,0,1.041,0,4.1,4.1,0,0,0,1.871-.692,1.551,1.551,0,0,0,.3-.335l.184-.275S83.835-891.43,83.835-891.43Z" transform="translate(-78.006 897.924)" fill="#72081c"/>
        <path id="Path_301" data-name="Path 301" d="M98.484-921.984a4.194,4.194,0,0,1-.237.91c-.029.071-.133.285-.233.477a5.581,5.581,0,0,0-.475,1.111,2.7,2.7,0,0,0-.05,1.4,4.727,4.727,0,0,0,.285.645s.364.589.709.6.789-.544.821-.587a2.269,2.269,0,0,0,.432-1.051,4.3,4.3,0,0,0,.006-.771,5.268,5.268,0,0,0-.1-.613,7.458,7.458,0,0,0-.93-2.041c-.094-.167-.175-.307-.178-.311A1.371,1.371,0,0,0,98.484-921.984Z" transform="translate(-92.951 922.988)" fill="red" stroke="#000" stroke-width="0.1"/>
      </g>
    </g>
  </g>
</svg>
